<svg xmlns="http://www.w3.org/2000/svg" xmlns:xlink="http://www.w3.org/1999/xlink" zoomAndPan="magnify" viewBox="0 0 30 30.000001" preserveAspectRatio="xMidYMid meet" version="1.0"><defs><clipPath id="5f3321fd34"><path d="M 5.417969 0 L 24.289062 0 L 24.289062 29 L 5.417969 29 Z M 5.417969 0 " clip-rule="nonzero"/></clipPath></defs><g clip-path="url(#5f3321fd34)"><path fill="#22517a" d="M 15.011719 0.046875 C 15 0.046875 14.992188 0.046875 14.984375 0.046875 C 14.976562 0.046875 14.96875 0.046875 14.960938 0.046875 C 9.6875 0.0507812 5.417969 4.332031 5.425781 9.601562 C 5.425781 10.75 6 13.433594 7.296875 15.730469 C 8.917969 18.601562 14.230469 28.050781 14.988281 28.945312 C 14.988281 28.945312 15.003906 28.988281 15.015625 28.976562 C 15.023438 28.988281 15.039062 28.945312 15.039062 28.945312 C 15.796875 28.050781 21.046875 18.558594 22.710938 15.710938 C 24.09375 13.347656 24.570312 10.726562 24.566406 9.582031 C 24.5625 4.308594 20.28125 0.0390625 15.011719 0.046875 " fill-opacity="1" fill-rule="nonzero"/></g><path fill="#e5e5e5" d="M 22.195312 9.625 C 22.195312 13.691406 18.898438 16.988281 14.832031 16.988281 C 10.765625 16.988281 7.46875 13.691406 7.46875 9.625 C 7.46875 5.558594 10.765625 2.261719 14.832031 2.261719 C 18.898438 2.261719 22.195312 5.558594 22.195312 9.625 " fill-opacity="1" fill-rule="nonzero"/><path fill="#22517a" d="M 17.882812 12.503906 L 16.480469 12.503906 C 16.15625 12.503906 15.890625 12.238281 15.890625 11.914062 C 15.890625 11.589844 16.15625 11.324219 16.480469 11.324219 L 17.882812 11.324219 C 18.207031 11.324219 18.46875 11.589844 18.46875 11.914062 C 18.46875 12.238281 18.207031 12.503906 17.882812 12.503906 Z M 13.3125 12.503906 L 11.914062 12.503906 C 11.589844 12.503906 11.324219 12.242188 11.324219 11.917969 C 11.324219 11.589844 11.589844 11.324219 11.914062 11.328125 L 13.3125 11.324219 C 13.636719 11.324219 13.902344 11.589844 13.902344 11.914062 C 13.902344 12.238281 13.636719 12.503906 13.3125 12.503906 Z M 11.542969 6.546875 C 11.542969 5.980469 12.003906 5.519531 12.570312 5.519531 L 17.195312 5.515625 C 17.761719 5.515625 18.222656 5.976562 18.222656 6.542969 L 18.222656 9.300781 C 18.222656 9.867188 17.765625 10.328125 17.195312 10.328125 L 12.574219 10.332031 C 12.003906 10.332031 11.542969 9.871094 11.542969 9.304688 Z M 17.839844 4.582031 L 11.871094 4.585938 C 11.140625 4.585938 10.546875 5.179688 10.546875 5.914062 L 10.550781 12.101562 C 10.550781 12.832031 11.144531 13.425781 11.875 13.425781 L 11.90625 13.425781 L 11.90625 14.089844 C 11.90625 14.441406 12.191406 14.722656 12.542969 14.722656 C 12.890625 14.722656 13.175781 14.441406 13.175781 14.085938 L 13.175781 13.425781 L 16.847656 13.421875 L 16.847656 14.085938 C 16.847656 14.4375 17.132812 14.722656 17.484375 14.722656 C 17.835938 14.722656 18.121094 14.4375 18.121094 14.085938 L 18.121094 13.394531 C 18.71875 13.265625 19.167969 12.734375 19.167969 12.097656 L 19.167969 5.910156 C 19.167969 5.175781 18.574219 4.582031 17.839844 4.582031 " fill-opacity="1" fill-rule="nonzero"/></svg>
