<svg xmlns="http://www.w3.org/2000/svg" xmlns:xlink="http://www.w3.org/1999/xlink" zoomAndPan="magnify" viewBox="0 0 150 225" preserveAspectRatio="xMidYMid meet" version="1.0">
  <path fill="#000000" d="M 71.605469 2.011719 C 33.023438 3.839844 1.574219 35.941406 0.511719 74.519531 C 0 92.988281 6.230469 109.976562 16.90625 123.261719 C 32.65625 142.863281 44.765625 165.195312 53.496094 188.78125 C 56.507812 196.925781 59.308594 204.820312 61.8125 212.15625 C 66.1875 224.976562 84.320312 224.976562 88.699219 212.15625 C 91.199219 204.820312 93.976562 196.925781 97.011719 188.78125 C 105.628906 165.496094 117.183594 143.164062 132.976562 124 C 143.605469 111.109375 150 94.609375 150 76.605469 C 149.976562 34.160156 114.519531 -0.0234375 71.605469 2.011719 Z M 75.21875 128.328125 C 46.640625 128.328125 23.484375 105.1875 23.484375 76.628906 C 23.484375 48.070312 46.640625 24.925781 75.21875 24.925781 C 103.796875 24.925781 126.957031 48.070312 126.957031 76.628906 C 126.957031 105.1875 103.796875 128.328125 75.21875 128.328125 Z M 75.21875 128.328125 " fill-opacity="1" fill-rule="nonzero"/><path fill="#000000" d="M 105.835938 66.234375 L 103.773438 66.234375 L 102.222656 49.15625 C 101.875 45.453125 98.980469 42.492188 95.273438 42.074219 C 90.851562 41.589844 81.101562 41.078125 73.574219 41.078125 C 66.050781 41.078125 59.609375 41.613281 55.1875 42.097656 C 51.484375 42.515625 48.585938 45.453125 48.261719 49.15625 L 46.6875 66.234375 L 44.605469 66.234375 C 43.121094 66.234375 41.917969 67.441406 41.917969 68.921875 L 41.917969 75.238281 C 41.917969 76.71875 43.121094 77.921875 44.605469 77.921875 L 45.714844 77.921875 L 45.714844 94.492188 C 45.714844 97.203125 47.269531 99.679688 49.722656 100.882812 L 50.023438 101.019531 L 50.023438 107.269531 C 50.023438 109.28125 51.667969 110.925781 53.683594 110.925781 L 58.871094 110.925781 C 60.886719 110.925781 62.527344 109.28125 62.527344 107.269531 L 62.527344 101.53125 L 87.933594 101.53125 L 87.933594 107.269531 C 87.933594 109.28125 89.578125 110.925781 91.59375 110.925781 L 96.757812 110.925781 C 98.773438 110.925781 100.417969 109.28125 100.417969 107.269531 L 100.417969 101.019531 C 102.988281 99.816406 104.722656 97.339844 104.722656 94.492188 L 104.722656 77.945312 L 105.835938 77.945312 C 107.316406 77.945312 108.523438 76.742188 108.523438 75.261719 L 108.523438 68.945312 C 108.523438 67.441406 107.316406 66.234375 105.835938 66.234375 Z M 65.65625 45.9375 L 84.808594 45.9375 C 85.871094 45.9375 86.707031 46.796875 86.707031 47.859375 C 86.707031 48.925781 85.851562 49.78125 84.808594 49.78125 L 65.65625 49.78125 C 64.589844 49.78125 63.757812 48.925781 63.757812 47.859375 C 63.734375 46.796875 64.589844 45.9375 65.65625 45.9375 Z M 56.324219 57.464844 C 56.390625 55.660156 57.875 54.226562 59.679688 54.226562 L 90.804688 54.226562 C 92.613281 54.226562 94.09375 55.660156 94.164062 57.464844 L 94.742188 74.453125 C 94.8125 76.351562 93.285156 77.921875 91.382812 77.921875 L 59.078125 77.921875 C 57.179688 77.921875 55.652344 76.351562 55.71875 74.453125 Z M 59.914062 93.453125 C 57.273438 93.453125 55.140625 91.300781 55.140625 88.660156 C 55.140625 86.023438 57.273438 83.894531 59.914062 83.894531 C 62.550781 83.894531 64.683594 86.023438 64.683594 88.660156 C 64.683594 91.300781 62.550781 93.453125 59.914062 93.453125 Z M 90.527344 93.453125 C 87.886719 93.453125 85.734375 91.300781 85.734375 88.660156 C 85.734375 86.023438 87.863281 83.894531 90.527344 83.894531 C 93.167969 83.894531 95.296875 86.023438 95.296875 88.660156 C 95.296875 91.300781 93.167969 93.453125 90.527344 93.453125 Z M 90.527344 93.453125" fill-opacity="1" fill-rule="nonzero" />
</svg>
