<svg xmlns="http://www.w3.org/2000/svg" xmlns:xlink="http://www.w3.org/1999/xlink" zoomAndPan="magnify" viewBox="0 0 150 142.499996" preserveAspectRatio="xMidYMid meet" version="1.0"><defs><clipPath id="472cad61a8"><path d="M 0.261719 0 L 149.738281 0 L 149.738281 141.808594 L 0.261719 141.808594 Z M 0.261719 0 " clip-rule="nonzero"/></clipPath></defs><g clip-path="url(#472cad61a8)"><path fill="#100f0d" d="M 126.238281 81.671875 C 126.238281 84.320312 124.539062 86.671875 122.019531 87.515625 C 109.992188 91.5 93.355469 93.96875 74.988281 93.96875 C 56.628906 93.96875 39.996094 91.5 27.960938 87.515625 C 25.445312 86.671875 23.742188 84.320312 23.742188 81.671875 L 23.742188 30.464844 C 23.742188 27.363281 26.261719 24.847656 29.378906 24.847656 L 120.609375 24.847656 C 123.726562 24.847656 126.238281 27.363281 126.238281 30.464844 Z M 126.238281 106.34375 C 126.238281 112.597656 120.308594 117.671875 112.992188 117.671875 L 96.453125 117.671875 C 92.589844 117.671875 91.355469 113.222656 94.808594 111.738281 L 121.117188 100.449219 C 123.46875 99.441406 126.238281 100.902344 126.238281 103.15625 Z M 53.527344 117.671875 L 36.988281 117.671875 C 29.671875 117.671875 23.742188 112.597656 23.742188 106.34375 L 23.742188 103.15625 C 23.742188 100.902344 26.515625 99.441406 28.863281 100.449219 L 55.171875 111.738281 C 58.625 113.222656 57.390625 117.671875 53.527344 117.671875 Z M 47.859375 9.386719 C 47.859375 8.460938 48.613281 7.714844 49.535156 7.714844 L 100.453125 7.714844 C 101.375 7.714844 102.121094 8.460938 102.121094 9.386719 L 102.121094 17.46875 C 102.121094 18.394531 101.375 19.140625 100.453125 19.140625 L 49.535156 19.140625 C 48.613281 19.140625 47.859375 18.394531 47.859375 17.46875 Z M 147.066406 36.273438 L 145.484375 36.273438 L 145.484375 34.863281 C 145.484375 32.21875 143.328125 30.066406 140.675781 30.066406 L 134.730469 30.066406 L 134.730469 16.339844 C 134.730469 14.535156 134.332031 12.820312 133.632812 11.277344 C 132.003906 7.667969 128.574219 5.214844 124.683594 4.445312 C 123.960938 4.300781 123.238281 4.164062 122.519531 4.03125 C 99.558594 -0.183594 74.988281 0.714844 74.988281 0.714844 C 74.988281 0.714844 50.421875 -0.183594 27.464844 4.03125 C 26.742188 4.164062 26.027344 4.300781 25.300781 4.445312 C 21.414062 5.214844 17.980469 7.667969 16.347656 11.277344 C 15.65625 12.820312 15.257812 14.535156 15.257812 16.339844 L 15.257812 30.066406 L 9.3125 30.066406 C 6.65625 30.066406 4.5 32.21875 4.5 34.863281 L 4.5 36.273438 L 2.917969 36.273438 C 1.460938 36.273438 0.28125 37.453125 0.28125 38.910156 L 0.28125 59.503906 C 0.28125 60.957031 1.460938 62.136719 2.917969 62.136719 L 9.695312 62.136719 C 11.15625 62.136719 12.335938 60.957031 12.335938 59.503906 L 12.335938 38.910156 C 12.335938 37.453125 11.15625 36.273438 9.695312 36.273438 L 8.117188 36.273438 L 8.117188 34.863281 C 8.117188 34.207031 8.652344 33.675781 9.3125 33.675781 L 15.257812 33.675781 L 15.257812 113.46875 C 15.257812 119.917969 19.101562 125.46875 24.625 127.976562 L 24.625 138.664062 C 24.625 140.40625 26.039062 141.816406 27.785156 141.816406 L 44.222656 141.816406 C 45.96875 141.816406 47.382812 140.40625 47.382812 138.664062 L 47.382812 129.402344 L 102.605469 129.402344 L 102.605469 138.664062 C 102.605469 140.40625 104.019531 141.816406 105.765625 141.816406 L 122.203125 141.816406 C 123.949219 141.816406 125.363281 140.40625 125.363281 138.664062 L 125.363281 127.976562 C 130.886719 125.46875 134.730469 119.917969 134.730469 113.46875 L 134.730469 33.675781 L 140.675781 33.675781 C 141.332031 33.675781 141.867188 34.207031 141.867188 34.863281 L 141.867188 36.273438 L 140.289062 36.273438 C 138.832031 36.273438 137.648438 37.453125 137.648438 38.910156 L 137.648438 59.503906 C 137.648438 60.957031 138.832031 62.136719 140.289062 62.136719 L 147.066406 62.136719 C 148.527344 62.136719 149.707031 60.957031 149.707031 59.503906 L 149.707031 38.910156 C 149.707031 37.453125 148.527344 36.273438 147.066406 36.273438" fill-opacity="1" fill-rule="nonzero"/></g></svg>
