<svg xmlns="http://www.w3.org/2000/svg" xmlns:xlink="http://www.w3.org/1999/xlink" zoomAndPan="magnify" viewBox="0 0 49.5 44.999999" preserveAspectRatio="xMidYMid meet" version="1.0"><defs><g/><clipPath id="3730645b3c"><path d="M 14.46875 1.113281 L 34.589844 1.113281 L 34.589844 31.664062 L 14.46875 31.664062 Z M 14.46875 1.113281 " clip-rule="nonzero"/></clipPath></defs><g clip-path="url(#3730645b3c)"><path fill="currentColor" d="M 24.515625 1.15625 C 24.503906 1.15625 24.496094 1.15625 24.488281 1.15625 C 24.480469 1.15625 24.46875 1.15625 24.460938 1.15625 C 18.941406 1.164062 14.46875 5.644531 14.476562 11.167969 C 14.476562 12.367188 15.074219 15.179688 16.433594 17.585938 C 18.132812 20.589844 23.699219 30.488281 24.492188 31.425781 C 24.492188 31.425781 24.507812 31.46875 24.519531 31.457031 C 24.527344 31.46875 24.542969 31.425781 24.542969 31.425781 C 25.335938 30.488281 30.835938 20.546875 32.582031 17.566406 C 34.027344 15.089844 34.523438 12.34375 34.523438 11.144531 C 34.519531 5.621094 30.035156 1.152344 24.515625 1.15625 " fill-opacity="1" fill-rule="nonzero"/></g><path class="bus" fill="#e5e5e5" d="M 32.039062 11.191406 C 32.039062 15.449219 28.585938 18.902344 24.328125 18.902344 C 20.070312 18.902344 16.617188 15.449219 16.617188 11.191406 C 16.617188 6.929688 20.070312 3.480469 24.328125 3.480469 C 28.585938 3.480469 32.039062 6.929688 32.039062 11.191406 " fill-opacity="1" fill-rule="nonzero"/><path fill="currentColor" d="M 27.519531 14.203125 L 26.054688 14.203125 C 25.710938 14.203125 25.4375 13.929688 25.4375 13.589844 C 25.4375 13.25 25.710938 12.972656 26.054688 12.972656 L 27.519531 12.972656 C 27.863281 12.972656 28.136719 13.246094 28.136719 13.585938 C 28.136719 13.929688 27.863281 14.203125 27.519531 14.203125 Z M 22.734375 14.207031 L 21.269531 14.207031 C 20.929688 14.207031 20.652344 13.929688 20.652344 13.59375 C 20.652344 13.25 20.929688 12.972656 21.269531 12.972656 L 22.734375 12.972656 C 23.078125 12.972656 23.351562 13.25 23.351562 13.589844 C 23.351562 13.929688 23.078125 14.203125 22.734375 14.207031 Z M 20.882812 7.96875 C 20.882812 7.375 21.363281 6.890625 21.957031 6.890625 L 26.800781 6.890625 C 27.398438 6.886719 27.878906 7.371094 27.878906 7.964844 L 27.878906 10.851562 C 27.878906 11.445312 27.398438 11.929688 26.804688 11.929688 L 21.960938 11.929688 C 21.367188 11.933594 20.882812 11.449219 20.882812 10.855469 Z M 27.480469 5.910156 L 21.226562 5.914062 C 20.464844 5.914062 19.839844 6.535156 19.839844 7.300781 L 19.84375 13.785156 C 19.84375 14.550781 20.464844 15.171875 21.230469 15.171875 L 21.261719 15.171875 L 21.261719 15.867188 C 21.261719 16.234375 21.558594 16.53125 21.929688 16.53125 C 22.296875 16.53125 22.59375 16.234375 22.59375 15.863281 L 22.59375 15.171875 L 26.441406 15.167969 L 26.441406 15.863281 C 26.441406 16.234375 26.738281 16.527344 27.105469 16.53125 C 27.476562 16.527344 27.769531 16.230469 27.769531 15.863281 L 27.769531 15.136719 C 28.398438 15.003906 28.871094 14.445312 28.871094 13.78125 L 28.867188 7.296875 C 28.867188 6.53125 28.246094 5.910156 27.480469 5.910156 " fill-opacity="1" fill-rule="nonzero"/><g fill="#b2b2b2" fill-opacity="1"><g transform="translate(1.055755, 39.842923)"><g><path d="M 6.78125 -3.5 C 6.644531 -2.382812 6.304688 -1.492188 5.765625 -0.828125 C 5.222656 -0.160156 4.515625 0.160156 3.640625 0.140625 C 2.898438 0.117188 2.335938 -0.179688 1.953125 -0.765625 L 1.6875 0 L 0.015625 0 L 1.75 -9.984375 L 3.59375 -9.984375 L 2.875 -6.390625 C 3.375 -6.921875 3.945312 -7.175781 4.59375 -7.15625 C 5.269531 -7.15625 5.800781 -6.914062 6.1875 -6.4375 C 6.582031 -5.957031 6.789062 -5.296875 6.8125 -4.453125 C 6.820312 -4.179688 6.8125 -3.863281 6.78125 -3.5 Z M 4.953125 -3.640625 C 4.992188 -4.003906 5.007812 -4.285156 5 -4.484375 C 4.945312 -5.242188 4.632812 -5.628906 4.0625 -5.640625 C 3.519531 -5.660156 3.070312 -5.414062 2.71875 -4.90625 L 2.203125 -2.109375 C 2.367188 -1.640625 2.722656 -1.398438 3.265625 -1.390625 C 4.160156 -1.359375 4.710938 -2.007812 4.921875 -3.34375 Z M 4.953125 -3.640625 "/></g></g></g><g fill="#b2b2b2" fill-opacity="1"><g transform="translate(8.38385, 39.842923)"><g><path d="M 4.375 -0.734375 C 3.851562 -0.140625 3.207031 0.144531 2.4375 0.125 C 1.757812 0.113281 1.25 -0.125 0.90625 -0.59375 C 0.5625 -1.070312 0.425781 -1.703125 0.5 -2.484375 L 1.265625 -7.03125 L 3.09375 -7.03125 L 2.328125 -2.46875 C 2.304688 -2.320312 2.300781 -2.1875 2.3125 -2.0625 C 2.351562 -1.625 2.59375 -1.398438 3.03125 -1.390625 C 3.601562 -1.367188 4.078125 -1.585938 4.453125 -2.046875 L 5.328125 -7.03125 L 7.171875 -7.03125 L 5.953125 0 L 4.234375 0 Z M 4.375 -0.734375 "/></g></g></g><g fill="#b2b2b2" fill-opacity="1"><g transform="translate(15.672967, 39.842923)"><g><path d="M 4.09375 -1.984375 C 4.164062 -2.328125 3.925781 -2.578125 3.375 -2.734375 L 2.78125 -2.890625 C 1.382812 -3.273438 0.703125 -3.953125 0.734375 -4.921875 C 0.765625 -5.585938 1.0625 -6.128906 1.625 -6.546875 C 2.1875 -6.960938 2.867188 -7.164062 3.671875 -7.15625 C 4.460938 -7.15625 5.101562 -6.945312 5.59375 -6.53125 C 6.082031 -6.125 6.332031 -5.578125 6.34375 -4.890625 L 4.515625 -4.890625 C 4.523438 -5.492188 4.226562 -5.800781 3.625 -5.8125 C 3.332031 -5.8125 3.082031 -5.738281 2.875 -5.59375 C 2.664062 -5.445312 2.535156 -5.253906 2.484375 -5.015625 C 2.421875 -4.671875 2.6875 -4.425781 3.28125 -4.28125 L 3.53125 -4.21875 C 4.132812 -4.082031 4.59375 -3.921875 4.90625 -3.734375 C 5.21875 -3.546875 5.457031 -3.316406 5.625 -3.046875 C 5.800781 -2.773438 5.882812 -2.445312 5.875 -2.0625 C 5.863281 -1.613281 5.71875 -1.222656 5.4375 -0.890625 C 5.164062 -0.554688 4.789062 -0.296875 4.3125 -0.109375 C 3.832031 0.0664062 3.328125 0.144531 2.796875 0.125 C 2.015625 0.113281 1.363281 -0.109375 0.84375 -0.546875 C 0.332031 -0.984375 0.0703125 -1.550781 0.0625 -2.25 L 1.78125 -2.234375 C 1.800781 -1.566406 2.160156 -1.226562 2.859375 -1.21875 C 3.203125 -1.21875 3.484375 -1.285156 3.703125 -1.421875 C 3.921875 -1.554688 4.050781 -1.742188 4.09375 -1.984375 Z M 4.09375 -1.984375 "/></g></g></g><g fill="currentColor" fill-opacity="1"><g transform="translate(22.374805, 39.842923)"><g><path d="M 2.9375 -7.046875 L 2.796875 -6.234375 C 3.359375 -6.867188 4.046875 -7.175781 4.859375 -7.15625 C 5.285156 -7.15625 5.640625 -7.054688 5.921875 -6.859375 C 6.210938 -6.671875 6.410156 -6.414062 6.515625 -6.09375 C 7.128906 -6.820312 7.859375 -7.175781 8.703125 -7.15625 C 9.347656 -7.144531 9.832031 -6.925781 10.15625 -6.5 C 10.476562 -6.070312 10.613281 -5.453125 10.5625 -4.640625 L 10.5625 -4.484375 L 9.8125 0 L 7.96875 0 L 8.71875 -4.484375 C 8.738281 -4.648438 8.742188 -4.800781 8.734375 -4.9375 C 8.703125 -5.394531 8.441406 -5.628906 7.953125 -5.640625 C 7.453125 -5.640625 7.019531 -5.375 6.65625 -4.84375 L 6.640625 -4.6875 L 5.828125 0 L 3.984375 0 L 4.734375 -4.484375 C 4.753906 -4.640625 4.765625 -4.785156 4.765625 -4.921875 C 4.734375 -5.378906 4.472656 -5.617188 3.984375 -5.640625 C 3.523438 -5.648438 3.109375 -5.429688 2.734375 -4.984375 L 1.859375 0 L 0.015625 0 L 1.234375 -7.03125 Z M 2.9375 -7.046875 "/></g></g></g><g fill="currentColor" fill-opacity="1"><g transform="translate(33.613817, 39.842923)"><g><path d="M 4.09375 0 C 4.03125 -0.175781 4.003906 -0.390625 4.015625 -0.640625 C 3.484375 -0.109375 2.882812 0.144531 2.21875 0.125 C 1.601562 0.113281 1.09375 -0.0820312 0.6875 -0.46875 C 0.28125 -0.863281 0.09375 -1.347656 0.125 -1.921875 C 0.15625 -2.691406 0.476562 -3.28125 1.09375 -3.6875 C 1.707031 -4.09375 2.53125 -4.296875 3.5625 -4.296875 L 4.40625 -4.296875 L 4.5 -4.71875 C 4.53125 -4.851562 4.539062 -4.988281 4.53125 -5.125 C 4.5 -5.320312 4.414062 -5.476562 4.28125 -5.59375 C 4.15625 -5.707031 3.984375 -5.769531 3.765625 -5.78125 C 3.484375 -5.789062 3.242188 -5.71875 3.046875 -5.5625 C 2.847656 -5.414062 2.71875 -5.203125 2.65625 -4.921875 L 0.8125 -4.921875 C 0.84375 -5.585938 1.148438 -6.128906 1.734375 -6.546875 C 2.328125 -6.960938 3.054688 -7.164062 3.921875 -7.15625 C 4.710938 -7.144531 5.332031 -6.910156 5.78125 -6.453125 C 6.238281 -5.992188 6.429688 -5.40625 6.359375 -4.6875 L 5.8125 -1.3125 L 5.78125 -0.90625 C 5.769531 -0.59375 5.804688 -0.332031 5.890625 -0.125 L 5.890625 0 Z M 2.671875 -1.296875 C 3.203125 -1.273438 3.664062 -1.503906 4.0625 -1.984375 L 4.296875 -3.203125 L 3.65625 -3.203125 C 2.976562 -3.179688 2.488281 -2.976562 2.1875 -2.59375 C 2.082031 -2.445312 2.015625 -2.269531 1.984375 -2.0625 C 1.953125 -1.820312 2 -1.632812 2.125 -1.5 C 2.257812 -1.363281 2.441406 -1.296875 2.671875 -1.296875 Z M 2.671875 -1.296875 "/></g></g></g><g fill="currentColor" fill-opacity="1"><g transform="translate(40.597602, 39.842923)"><g><path d="M 6.765625 -3.5 C 6.679688 -2.757812 6.488281 -2.101562 6.1875 -1.53125 C 5.894531 -0.957031 5.53125 -0.53125 5.09375 -0.25 C 4.65625 0.0195312 4.171875 0.148438 3.640625 0.140625 C 2.960938 0.117188 2.425781 -0.132812 2.03125 -0.625 L 1.390625 2.703125 L -0.453125 2.703125 L 1.234375 -7.03125 L 2.921875 -7.046875 L 2.796875 -6.328125 C 3.304688 -6.898438 3.90625 -7.175781 4.59375 -7.15625 C 5.28125 -7.144531 5.8125 -6.894531 6.1875 -6.40625 C 6.570312 -5.925781 6.78125 -5.273438 6.8125 -4.453125 C 6.820312 -4.179688 6.804688 -3.863281 6.765625 -3.5 Z M 4.953125 -3.640625 L 5 -4.25 C 5 -4.675781 4.914062 -5.007812 4.75 -5.25 C 4.59375 -5.5 4.359375 -5.628906 4.046875 -5.640625 C 3.515625 -5.660156 3.078125 -5.4375 2.734375 -4.96875 L 2.203125 -2.0625 C 2.359375 -1.625 2.703125 -1.398438 3.234375 -1.390625 C 3.679688 -1.367188 4.050781 -1.535156 4.34375 -1.890625 C 4.632812 -2.253906 4.835938 -2.835938 4.953125 -3.640625 Z M 4.953125 -3.640625 "/></g></g></g></svg>
