<svg xmlns="http://www.w3.org/2000/svg" xmlns:xlink="http://www.w3.org/1999/xlink" zoomAndPan="magnify" viewBox="0 0 224.87999 88.499997" preserveAspectRatio="xMidYMid meet" version="1.0"><defs><g/><clipPath id="e4061b246c"><path d="M 176 15.476562 L 221.492188 15.476562 L 221.492188 84.832031 L 176 84.832031 Z M 176 15.476562 " clip-rule="nonzero"/></clipPath></defs><g clip-path="url(#e4061b246c)"><path fill="currentColor" d="M 198.855469 15.578125 C 198.835938 15.578125 198.816406 15.578125 198.796875 15.578125 C 198.777344 15.578125 198.753906 15.578125 198.734375 15.578125 C 186.171875 15.59375 175.996094 25.792969 176.011719 38.351562 C 176.015625 41.085938 177.382812 47.480469 180.472656 52.953125 C 184.335938 59.796875 196.996094 82.316406 198.800781 84.445312 C 198.800781 84.445312 198.84375 84.546875 198.867188 84.519531 C 198.886719 84.546875 198.925781 84.445312 198.925781 84.445312 C 200.726562 82.308594 213.234375 59.691406 217.207031 52.910156 C 220.503906 47.277344 221.632812 41.03125 221.632812 38.300781 C 221.617188 25.738281 211.417969 15.5625 198.855469 15.578125 " fill-opacity="1" fill-rule="nonzero"/></g><path fill="#e5e5e5" d="M 215.976562 38.402344 C 215.976562 48.09375 208.121094 55.949219 198.429688 55.949219 C 188.742188 55.949219 180.886719 48.09375 180.886719 38.402344 C 180.886719 28.714844 188.742188 20.859375 198.429688 20.859375 C 208.121094 20.859375 215.976562 28.714844 215.976562 38.402344 " fill-opacity="1" fill-rule="nonzero"/><path fill="currentColor" d="M 205.695312 45.261719 L 202.359375 45.261719 C 201.582031 45.265625 200.957031 44.632812 200.957031 43.863281 C 200.957031 43.085938 201.582031 42.457031 202.359375 42.457031 L 205.695312 42.457031 C 206.472656 42.457031 207.097656 43.085938 207.097656 43.859375 C 207.097656 44.632812 206.472656 45.261719 205.695312 45.261719 Z M 194.808594 45.265625 L 191.476562 45.269531 C 190.703125 45.269531 190.070312 44.640625 190.070312 43.867188 C 190.070312 43.089844 190.699219 42.460938 191.472656 42.460938 L 194.808594 42.460938 C 195.585938 42.457031 196.210938 43.085938 196.210938 43.863281 C 196.214844 44.636719 195.585938 45.265625 194.808594 45.265625 Z M 190.59375 31.074219 C 190.589844 29.722656 191.6875 28.621094 193.039062 28.621094 L 204.058594 28.617188 C 205.414062 28.613281 206.511719 29.710938 206.511719 31.0625 L 206.515625 37.636719 C 206.515625 38.988281 205.417969 40.085938 204.0625 40.085938 L 193.046875 40.089844 C 191.691406 40.09375 190.59375 38.992188 190.59375 37.640625 Z M 205.601562 26.390625 L 191.378906 26.394531 C 189.636719 26.398438 188.21875 27.8125 188.222656 29.558594 L 188.226562 44.304688 C 188.226562 46.050781 189.644531 47.464844 191.386719 47.464844 L 191.453125 47.464844 L 191.453125 49.042969 C 191.457031 49.882812 192.132812 50.554688 192.972656 50.554688 C 193.808594 50.554688 194.480469 49.882812 194.484375 49.039062 L 194.480469 47.464844 L 203.238281 47.457031 L 203.238281 49.039062 C 203.238281 49.878906 203.917969 50.550781 204.753906 50.554688 C 205.589844 50.550781 206.265625 49.875 206.265625 49.035156 L 206.265625 47.386719 C 207.695312 47.085938 208.765625 45.816406 208.765625 44.296875 L 208.757812 29.550781 C 208.757812 27.804688 207.34375 26.390625 205.601562 26.390625 " fill-opacity="1" fill-rule="nonzero"/><g fill="#b2b2b2" fill-opacity="1"><g transform="translate(2.774422, 51.566431)"><g><path d="M 29.3125 -15.125 C 28.75 -10.320312 27.285156 -6.476562 24.921875 -3.59375 C 22.566406 -0.707031 19.515625 0.6875 15.765625 0.59375 C 12.554688 0.519531 10.117188 -0.769531 8.453125 -3.28125 L 7.3125 0 L 0.078125 0 L 7.5625 -43.15625 L 15.515625 -43.15625 L 12.453125 -27.625 C 14.585938 -29.925781 17.054688 -31.039062 19.859375 -30.96875 C 22.804688 -30.925781 25.117188 -29.867188 26.796875 -27.796875 C 28.472656 -25.734375 29.363281 -22.875 29.46875 -19.21875 C 29.507812 -18.0625 29.457031 -16.695312 29.3125 -15.125 Z M 21.4375 -15.703125 C 21.601562 -17.296875 21.660156 -18.535156 21.609375 -19.421875 C 21.398438 -22.679688 20.050781 -24.335938 17.5625 -24.390625 C 15.21875 -24.460938 13.28125 -23.40625 11.75 -21.21875 L 9.546875 -9.125 C 10.265625 -7.101562 11.785156 -6.054688 14.109375 -5.984375 C 18.003906 -5.867188 20.390625 -8.695312 21.265625 -14.46875 Z M 21.4375 -15.703125 "/></g></g></g><g fill="#b2b2b2" fill-opacity="1"><g transform="translate(34.467524, 51.566431)"><g><path d="M 18.90625 -3.140625 C 16.65625 -0.617188 13.863281 0.613281 10.53125 0.5625 C 7.613281 0.519531 5.40625 -0.523438 3.90625 -2.578125 C 2.40625 -4.640625 1.820312 -7.359375 2.15625 -10.734375 L 5.453125 -30.40625 L 13.375 -30.40625 L 10.03125 -10.65625 C 9.957031 -10.03125 9.945312 -9.445312 10 -8.90625 C 10.1875 -7.03125 11.226562 -6.066406 13.125 -6.015625 C 15.570312 -5.941406 17.601562 -6.882812 19.21875 -8.84375 L 23.015625 -30.40625 L 31 -30.40625 L 25.703125 0 L 18.328125 0 Z M 18.90625 -3.140625 "/></g></g></g><g fill="#b2b2b2" fill-opacity="1"><g transform="translate(65.992046, 51.566431)"><g><path d="M 17.703125 -8.5625 C 18.003906 -10.0625 16.960938 -11.148438 14.578125 -11.828125 L 12.03125 -12.46875 C 5.976562 -14.144531 3.035156 -17.085938 3.203125 -21.296875 C 3.296875 -24.160156 4.5625 -26.492188 7 -28.296875 C 9.445312 -30.109375 12.394531 -31 15.84375 -30.96875 C 19.269531 -30.925781 22.039062 -30.015625 24.15625 -28.234375 C 26.28125 -26.453125 27.359375 -24.082031 27.390625 -21.125 L 19.53125 -21.15625 C 19.5625 -23.757812 18.269531 -25.082031 15.65625 -25.125 C 14.414062 -25.125 13.34375 -24.8125 12.4375 -24.1875 C 11.53125 -23.570312 10.972656 -22.738281 10.765625 -21.6875 C 10.484375 -20.1875 11.613281 -19.128906 14.15625 -18.515625 L 15.28125 -18.265625 C 17.863281 -17.648438 19.835938 -16.941406 21.203125 -16.140625 C 22.578125 -15.347656 23.632812 -14.359375 24.375 -13.171875 C 25.113281 -11.992188 25.457031 -10.582031 25.40625 -8.9375 C 25.34375 -7.007812 24.71875 -5.320312 23.53125 -3.875 C 22.34375 -2.4375 20.710938 -1.320312 18.640625 -0.53125 C 16.566406 0.25 14.390625 0.613281 12.109375 0.5625 C 8.734375 0.519531 5.921875 -0.445312 3.671875 -2.34375 C 1.429688 -4.25 0.289062 -6.707031 0.25 -9.71875 L 7.734375 -9.671875 C 7.804688 -6.765625 9.359375 -5.289062 12.390625 -5.25 C 13.847656 -5.25 15.050781 -5.546875 16 -6.140625 C 16.945312 -6.742188 17.515625 -7.550781 17.703125 -8.5625 Z M 17.703125 -8.5625 "/></g></g></g><g fill="currentColor" fill-opacity="1"><g transform="translate(94.96062, 51.566431)"><g><path d="M 12.734375 -30.4375 L 12.078125 -26.96875 C 14.535156 -29.707031 17.503906 -31.039062 20.984375 -30.96875 C 22.859375 -30.925781 24.414062 -30.492188 25.65625 -29.671875 C 26.894531 -28.847656 27.726562 -27.734375 28.15625 -26.328125 C 30.832031 -29.492188 33.976562 -31.039062 37.59375 -30.96875 C 40.382812 -30.90625 42.488281 -29.945312 43.90625 -28.09375 C 45.320312 -26.238281 45.914062 -23.5625 45.6875 -20.0625 L 45.640625 -19.359375 L 42.40625 0 L 34.453125 0 L 37.6875 -19.421875 C 37.757812 -20.109375 37.785156 -20.753906 37.765625 -21.359375 C 37.628906 -23.328125 36.503906 -24.335938 34.390625 -24.390625 C 32.222656 -24.390625 30.359375 -23.226562 28.796875 -20.90625 L 28.71875 -20.265625 L 25.171875 0 L 17.25 0 L 20.484375 -19.359375 C 20.554688 -20.054688 20.582031 -20.703125 20.5625 -21.296875 C 20.4375 -23.285156 19.320312 -24.304688 17.21875 -24.359375 C 15.21875 -24.421875 13.410156 -23.476562 11.796875 -21.53125 L 8.015625 0 L 0.078125 0 L 5.34375 -30.40625 Z M 12.734375 -30.4375 "/></g></g></g><g fill="currentColor" fill-opacity="1"><g transform="translate(143.567949, 51.566431)"><g><path d="M 17.671875 0 C 17.429688 -0.769531 17.328125 -1.6875 17.359375 -2.75 C 15.078125 -0.46875 12.492188 0.632812 9.609375 0.5625 C 6.953125 0.519531 4.742188 -0.34375 2.984375 -2.03125 C 1.234375 -3.726562 0.414062 -5.820312 0.53125 -8.3125 C 0.664062 -11.632812 2.054688 -14.179688 4.703125 -15.953125 C 7.359375 -17.722656 10.914062 -18.609375 15.375 -18.609375 L 19.078125 -18.546875 L 19.46875 -20.375 C 19.582031 -20.988281 19.613281 -21.578125 19.5625 -22.140625 C 19.46875 -23.023438 19.132812 -23.710938 18.5625 -24.203125 C 17.988281 -24.703125 17.234375 -24.960938 16.296875 -24.984375 C 15.054688 -25.015625 14.003906 -24.707031 13.140625 -24.0625 C 12.285156 -23.414062 11.738281 -22.484375 11.5 -21.265625 L 3.546875 -21.25 C 3.671875 -24.144531 5.003906 -26.492188 7.546875 -28.296875 C 10.085938 -30.109375 13.21875 -31 16.9375 -30.96875 C 20.382812 -30.894531 23.082031 -29.867188 25.03125 -27.890625 C 26.976562 -25.910156 27.796875 -23.367188 27.484375 -20.265625 L 25.15625 -5.703125 L 25.015625 -3.90625 C 24.972656 -2.570312 25.128906 -1.445312 25.484375 -0.53125 L 25.453125 0 Z M 11.578125 -5.59375 C 13.859375 -5.519531 15.851562 -6.507812 17.5625 -8.5625 L 18.546875 -13.828125 L 15.796875 -13.859375 C 12.867188 -13.773438 10.757812 -12.882812 9.46875 -11.1875 C 9 -10.5625 8.707031 -9.800781 8.59375 -8.90625 C 8.445312 -7.894531 8.660156 -7.09375 9.234375 -6.5 C 9.804688 -5.914062 10.585938 -5.613281 11.578125 -5.59375 Z M 11.578125 -5.59375 "/></g></g></g></svg>
