<svg xmlns="http://www.w3.org/2000/svg" xmlns:xlink="http://www.w3.org/1999/xlink" zoomAndPan="magnify" viewBox="0 0 90 90" preserveAspectRatio="xMidYMid meet" version="1.0">
  <defs>
    <clipPath id="79034c24f7">
      <path d="M 27.378906 7.441406 L 62.710938 7.441406 L 62.710938 61 L 27.378906 61 Z M 27.378906 7.441406 " clip-rule="nonzero" />
    </clipPath>
  </defs>
  <g clip-path="url(#79034c24f7)">
    <path fill="currentColor" d="M 45.019531 7.523438 C 45.003906 7.523438 44.988281 7.523438 44.976562 7.523438 C 44.960938 7.523438 44.945312 7.523438 44.929688 7.523438 C 35.230469 7.53125 27.378906 15.402344 27.390625 25.097656 C 27.394531 27.207031 28.445312 32.144531 30.832031 36.367188 C 33.8125 41.648438 43.585938 59.03125 44.980469 60.675781 C 44.980469 60.675781 45.011719 60.75 45.027344 60.730469 C 45.046875 60.75 45.074219 60.675781 45.074219 60.675781 C 46.464844 59.027344 56.121094 41.570312 59.183594 36.335938 C 61.730469 31.988281 62.601562 27.167969 62.597656 25.058594 C 62.585938 15.363281 54.71875 7.511719 45.019531 7.523438 " fill-opacity="1" fill-rule="nonzero" />
  </g>
  <path class="bus" fill="#e5e5e5" d="M 58.234375 25.136719 C 58.234375 32.617188 52.171875 38.679688 44.691406 38.679688 C 37.214844 38.679688 31.152344 32.617188 31.152344 25.136719 C 31.152344 17.660156 37.214844 11.597656 44.691406 11.597656 C 52.171875 11.597656 58.234375 17.660156 58.234375 25.136719 " fill-opacity="1" fill-rule="nonzero" />
  <path fill="currentColor" d="M 50.300781 30.433594 L 47.722656 30.433594 C 47.125 30.433594 46.640625 29.949219 46.640625 29.351562 C 46.640625 28.753906 47.125 28.265625 47.722656 28.265625 L 50.300781 28.265625 C 50.898438 28.265625 51.382812 28.75 51.382812 29.347656 C 51.382812 29.949219 50.898438 30.433594 50.300781 30.433594 Z M 41.898438 30.4375 L 39.324219 30.4375 C 38.726562 30.4375 38.242188 29.953125 38.242188 29.355469 C 38.242188 28.753906 38.726562 28.269531 39.324219 28.269531 L 41.894531 28.269531 C 42.496094 28.265625 42.980469 28.753906 42.980469 29.351562 C 42.980469 29.949219 42.496094 30.433594 41.898438 30.4375 Z M 38.644531 19.480469 C 38.640625 18.4375 39.488281 17.589844 40.53125 17.589844 L 49.035156 17.585938 C 50.082031 17.582031 50.929688 18.429688 50.929688 19.472656 L 50.929688 24.546875 C 50.929688 25.589844 50.085938 26.4375 49.039062 26.4375 L 40.535156 26.4375 C 39.492188 26.441406 38.644531 25.59375 38.644531 24.550781 Z M 50.226562 15.867188 L 39.25 15.871094 C 37.90625 15.871094 36.8125 16.964844 36.8125 18.3125 L 36.816406 29.691406 C 36.816406 31.039062 37.910156 32.132812 39.257812 32.132812 L 39.308594 32.132812 L 39.308594 33.351562 C 39.308594 33.996094 39.832031 34.519531 40.480469 34.515625 C 41.125 34.515625 41.644531 33.996094 41.648438 33.347656 L 41.644531 32.132812 L 48.402344 32.125 L 48.402344 33.347656 C 48.402344 33.992188 48.925781 34.515625 49.574219 34.515625 C 50.21875 34.515625 50.738281 33.992188 50.738281 33.34375 L 50.738281 32.070312 C 51.84375 31.839844 52.671875 30.859375 52.671875 29.6875 L 52.664062 18.304688 C 52.664062 16.957031 51.570312 15.867188 50.226562 15.867188 " fill-opacity="1" fill-rule="nonzero" />
  <g fill="#b2b2b2" fill-opacity="1">
    <g transform="translate(3.825589, 75.455602)">
      <g>
        <path d="M 11.890625 -6.140625 C 11.660156 -4.191406 11.066406 -2.628906 10.109375 -1.453125 C 9.160156 -0.285156 7.925781 0.273438 6.40625 0.234375 C 5.101562 0.203125 4.113281 -0.316406 3.4375 -1.328125 L 2.96875 0 L 0.03125 0 L 3.0625 -17.515625 L 6.296875 -17.515625 L 5.046875 -11.21875 C 5.921875 -12.144531 6.925781 -12.59375 8.0625 -12.5625 C 9.257812 -12.550781 10.195312 -12.125 10.875 -11.28125 C 11.550781 -10.445312 11.914062 -9.285156 11.96875 -7.796875 C 11.976562 -7.328125 11.953125 -6.773438 11.890625 -6.140625 Z M 8.703125 -6.375 C 8.773438 -7.019531 8.796875 -7.519531 8.765625 -7.875 C 8.679688 -9.195312 8.132812 -9.875 7.125 -9.90625 C 6.175781 -9.9375 5.390625 -9.503906 4.765625 -8.609375 L 3.875 -3.703125 C 4.164062 -2.878906 4.78125 -2.453125 5.71875 -2.421875 C 7.300781 -2.378906 8.273438 -3.53125 8.640625 -5.875 Z M 8.703125 -6.375 " />
      </g>
    </g>
  </g>
  <g fill="#b2b2b2" fill-opacity="1">
    <g transform="translate(16.694326, 75.455602)">
      <g>
        <path d="M 7.671875 -1.28125 C 6.765625 -0.25 5.632812 0.253906 4.28125 0.234375 C 3.09375 0.210938 2.191406 -0.210938 1.578125 -1.046875 C 0.972656 -1.878906 0.738281 -2.984375 0.875 -4.359375 L 2.21875 -12.34375 L 5.421875 -12.34375 L 4.078125 -4.328125 C 4.046875 -4.078125 4.039062 -3.835938 4.0625 -3.609375 C 4.132812 -2.847656 4.554688 -2.457031 5.328125 -2.4375 C 6.328125 -2.40625 7.148438 -2.789062 7.796875 -3.59375 L 9.34375 -12.34375 L 12.578125 -12.34375 L 10.4375 0 L 7.4375 0 Z M 7.671875 -1.28125 " />
      </g>
    </g>
  </g>
  <g fill="#b2b2b2" fill-opacity="1">
    <g transform="translate(29.494613, 75.455602)">
      <g>
        <path d="M 7.1875 -3.484375 C 7.3125 -4.085938 6.890625 -4.523438 5.921875 -4.796875 L 4.875 -5.0625 C 2.425781 -5.738281 1.234375 -6.929688 1.296875 -8.640625 C 1.335938 -9.804688 1.851562 -10.753906 2.84375 -11.484375 C 3.832031 -12.222656 5.03125 -12.582031 6.4375 -12.5625 C 7.820312 -12.550781 8.941406 -12.179688 9.796875 -11.453125 C 10.660156 -10.734375 11.101562 -9.773438 11.125 -8.578125 L 7.921875 -8.59375 C 7.941406 -9.644531 7.421875 -10.179688 6.359375 -10.203125 C 5.847656 -10.203125 5.410156 -10.070312 5.046875 -9.8125 C 4.679688 -9.5625 4.457031 -9.226562 4.375 -8.8125 C 4.257812 -8.195312 4.71875 -7.765625 5.75 -7.515625 L 6.203125 -7.40625 C 7.253906 -7.15625 8.054688 -6.867188 8.609375 -6.546875 C 9.160156 -6.222656 9.585938 -5.820312 9.890625 -5.34375 C 10.191406 -4.863281 10.332031 -4.289062 10.3125 -3.625 C 10.289062 -2.84375 10.035156 -2.160156 9.546875 -1.578125 C 9.066406 -0.992188 8.40625 -0.539062 7.5625 -0.21875 C 6.726562 0.101562 5.847656 0.253906 4.921875 0.234375 C 3.546875 0.210938 2.398438 -0.179688 1.484375 -0.953125 C 0.578125 -1.722656 0.117188 -2.722656 0.109375 -3.953125 L 3.140625 -3.921875 C 3.171875 -2.742188 3.800781 -2.148438 5.03125 -2.140625 C 5.625 -2.140625 6.113281 -2.257812 6.5 -2.5 C 6.882812 -2.738281 7.113281 -3.066406 7.1875 -3.484375 Z M 7.1875 -3.484375 " />
      </g>
    </g>
  </g>
  <g fill="currentColor" fill-opacity="1">
    <g transform="translate(41.263592, 75.455602)">
      <g>
        <path d="M 5.171875 -12.359375 L 4.90625 -10.953125 C 5.90625 -12.054688 7.109375 -12.59375 8.515625 -12.5625 C 9.273438 -12.550781 9.90625 -12.378906 10.40625 -12.046875 C 10.914062 -11.710938 11.253906 -11.257812 11.421875 -10.6875 C 12.515625 -11.96875 13.796875 -12.59375 15.265625 -12.5625 C 16.390625 -12.539062 17.238281 -12.15625 17.8125 -11.40625 C 18.394531 -10.65625 18.640625 -9.566406 18.546875 -8.140625 L 18.515625 -7.859375 L 17.21875 0 L 13.984375 0 L 15.296875 -7.875 C 15.328125 -8.15625 15.335938 -8.421875 15.328125 -8.671875 C 15.273438 -9.460938 14.816406 -9.875 13.953125 -9.90625 C 13.078125 -9.90625 12.320312 -9.429688 11.6875 -8.484375 L 11.65625 -8.21875 L 10.21875 0 L 7 0 L 8.3125 -7.859375 C 8.34375 -8.140625 8.351562 -8.398438 8.34375 -8.640625 C 8.289062 -9.453125 7.835938 -9.867188 6.984375 -9.890625 C 6.171875 -9.910156 5.441406 -9.523438 4.796875 -8.734375 L 3.25 0 L 0.03125 0 L 2.171875 -12.34375 Z M 5.171875 -12.359375 " />
      </g>
    </g>
  </g>
  <g fill="currentColor" fill-opacity="1">
    <g transform="translate(61.00022, 75.455602)">
      <g>
        <path d="M 7.171875 0 C 7.078125 -0.3125 7.035156 -0.6875 7.046875 -1.125 C 6.117188 -0.1875 5.070312 0.265625 3.90625 0.234375 C 2.820312 0.210938 1.921875 -0.140625 1.203125 -0.828125 C 0.492188 -1.515625 0.164062 -2.363281 0.21875 -3.375 C 0.269531 -4.71875 0.832031 -5.75 1.90625 -6.46875 C 2.988281 -7.1875 4.429688 -7.546875 6.234375 -7.546875 L 7.75 -7.53125 L 7.90625 -8.265625 C 7.945312 -8.515625 7.957031 -8.753906 7.9375 -8.984375 C 7.894531 -9.347656 7.757812 -9.628906 7.53125 -9.828125 C 7.300781 -10.023438 6.992188 -10.128906 6.609375 -10.140625 C 6.109375 -10.148438 5.679688 -10.023438 5.328125 -9.765625 C 4.984375 -9.503906 4.765625 -9.128906 4.671875 -8.640625 L 1.4375 -8.625 C 1.488281 -9.800781 2.03125 -10.753906 3.0625 -11.484375 C 4.09375 -12.222656 5.363281 -12.582031 6.875 -12.5625 C 8.269531 -12.539062 9.363281 -12.125 10.15625 -11.3125 C 10.945312 -10.507812 11.28125 -9.476562 11.15625 -8.21875 L 10.203125 -2.3125 L 10.15625 -1.578125 C 10.132812 -1.046875 10.195312 -0.59375 10.34375 -0.21875 L 10.328125 0 Z M 4.703125 -2.265625 C 5.628906 -2.234375 6.4375 -2.640625 7.125 -3.484375 L 7.53125 -5.609375 L 6.40625 -5.625 C 5.21875 -5.59375 4.363281 -5.234375 3.84375 -4.546875 C 3.65625 -4.285156 3.535156 -3.972656 3.484375 -3.609375 C 3.429688 -3.203125 3.519531 -2.878906 3.75 -2.640625 C 3.976562 -2.398438 4.296875 -2.273438 4.703125 -2.265625 Z M 4.703125 -2.265625 " />
      </g>
    </g>
  </g>
  <g fill="currentColor" fill-opacity="1">
    <g transform="translate(73.26432, 75.455602)">
      <g>
        <path d="M 11.890625 -6.140625 C 11.722656 -4.847656 11.378906 -3.695312 10.859375 -2.6875 C 10.347656 -1.6875 9.707031 -0.941406 8.9375 -0.453125 C 8.175781 0.0351562 7.328125 0.265625 6.390625 0.234375 C 5.191406 0.203125 4.25 -0.238281 3.5625 -1.09375 L 2.421875 4.75 L -0.78125 4.75 L 2.171875 -12.34375 L 5.125 -12.359375 L 4.921875 -11.109375 C 5.804688 -12.109375 6.851562 -12.59375 8.0625 -12.5625 C 9.269531 -12.539062 10.207031 -12.101562 10.875 -11.25 C 11.550781 -10.40625 11.910156 -9.253906 11.953125 -7.796875 C 11.960938 -7.328125 11.941406 -6.773438 11.890625 -6.140625 Z M 8.6875 -6.375 L 8.765625 -7.46875 C 8.773438 -8.207031 8.632812 -8.789062 8.34375 -9.21875 C 8.0625 -9.65625 7.648438 -9.882812 7.109375 -9.90625 C 6.171875 -9.9375 5.398438 -9.539062 4.796875 -8.71875 L 3.859375 -3.625 C 4.140625 -2.851562 4.75 -2.453125 5.6875 -2.421875 C 6.457031 -2.398438 7.097656 -2.703125 7.609375 -3.328125 C 8.128906 -3.953125 8.488281 -4.96875 8.6875 -6.375 Z M 8.6875 -6.375 " />
      </g>
    </g>
  </g>
</svg>
