<svg xmlns="http://www.w3.org/2000/svg" xmlns:xlink="http://www.w3.org/1999/xlink"  zoomAndPan="magnify" viewBox="0 0 90 90" preserveAspectRatio="xMidYMid meet" version="1.0"><defs><g/><clipPath id="476c0e621d"><path d="M 18 39 L 72 39 L 72 90 L 18 90 Z M 18 39 " clip-rule="nonzero"/></clipPath><clipPath id="4b73919a89"><path d="M 36.527344 39.75 L 71.457031 63.070312 L 53.550781 89.894531 L 18.621094 66.574219 Z M 36.527344 39.75 " clip-rule="nonzero"/></clipPath><clipPath id="630a4278ed"><path d="M 36.527344 39.75 L 71.457031 63.070312 L 53.550781 89.894531 L 18.621094 66.574219 Z M 36.527344 39.75 " clip-rule="nonzero"/></clipPath><clipPath id="bc7ea6e4d9"><path d="M 36.527344 39.75 L 71.457031 63.070312 L 53.550781 89.894531 L 18.621094 66.574219 Z M 36.527344 39.75 " clip-rule="nonzero"/></clipPath><clipPath id="3f39e24242"><path d="M 45 81 L 50 81 L 50 88 L 45 88 Z M 45 81 " clip-rule="nonzero"/></clipPath><clipPath id="f788287c49"><path d="M 36.527344 39.75 L 71.457031 63.070312 L 53.550781 89.894531 L 18.621094 66.574219 Z M 36.527344 39.75 " clip-rule="nonzero"/></clipPath><clipPath id="a0c217ebf8"><path d="M 36.527344 39.75 L 71.457031 63.070312 L 53.550781 89.894531 L 18.621094 66.574219 Z M 36.527344 39.75 " clip-rule="nonzero"/></clipPath><clipPath id="d50fa77cb9"><path d="M 36.527344 39.75 L 71.457031 63.070312 L 53.550781 89.894531 L 18.621094 66.574219 Z M 36.527344 39.75 " clip-rule="nonzero"/></clipPath><clipPath id="1c26e6e1f7"><path d="M 64 66 L 69 66 L 69 72 L 64 72 Z M 64 66 " clip-rule="nonzero"/></clipPath><clipPath id="5fa3f8fd5d"><path d="M 36.527344 39.75 L 71.457031 63.070312 L 53.550781 89.894531 L 18.621094 66.574219 Z M 36.527344 39.75 " clip-rule="nonzero"/></clipPath><clipPath id="0baf4f63bb"><path d="M 36.527344 39.75 L 71.457031 63.070312 L 53.550781 89.894531 L 18.621094 66.574219 Z M 36.527344 39.75 " clip-rule="nonzero"/></clipPath><clipPath id="34f445dcea"><path d="M 36.527344 39.75 L 71.457031 63.070312 L 53.550781 89.894531 L 18.621094 66.574219 Z M 36.527344 39.75 " clip-rule="nonzero"/></clipPath><clipPath id="9f79ecea0f"><path d="M 28 61 L 35 61 L 35 68 L 28 68 Z M 28 61 " clip-rule="nonzero"/></clipPath><clipPath id="ccbaefcac6"><path d="M 36.527344 39.75 L 71.457031 63.070312 L 53.550781 89.894531 L 18.621094 66.574219 Z M 36.527344 39.75 " clip-rule="nonzero"/></clipPath><clipPath id="4f4158b020"><path d="M 36.527344 39.75 L 71.457031 63.070312 L 53.550781 89.894531 L 18.621094 66.574219 Z M 36.527344 39.75 " clip-rule="nonzero"/></clipPath><clipPath id="0ebde82260"><path d="M 36.527344 39.75 L 71.457031 63.070312 L 53.550781 89.894531 L 18.621094 66.574219 Z M 36.527344 39.75 " clip-rule="nonzero"/></clipPath><clipPath id="d059f84919"><path d="M 63 69 L 66 69 L 66 75 L 63 75 Z M 63 69 " clip-rule="nonzero"/></clipPath><clipPath id="127951f0e3"><path d="M 36.527344 39.75 L 71.457031 63.070312 L 53.550781 89.894531 L 18.621094 66.574219 Z M 36.527344 39.75 " clip-rule="nonzero"/></clipPath><clipPath id="0ed6481aaf"><path d="M 36.527344 39.75 L 71.457031 63.070312 L 53.550781 89.894531 L 18.621094 66.574219 Z M 36.527344 39.75 " clip-rule="nonzero"/></clipPath><clipPath id="dbab52017d"><path d="M 36.527344 39.75 L 71.457031 63.070312 L 53.550781 89.894531 L 18.621094 66.574219 Z M 36.527344 39.75 " clip-rule="nonzero"/></clipPath><clipPath id="bbdd7a6842"><path d="M 40 45 L 47 45 L 47 50 L 40 50 Z M 40 45 " clip-rule="nonzero"/></clipPath><clipPath id="a3bc126b9d"><path d="M 36.527344 39.75 L 71.457031 63.070312 L 53.550781 89.894531 L 18.621094 66.574219 Z M 36.527344 39.75 " clip-rule="nonzero"/></clipPath><clipPath id="1b37578ea2"><path d="M 36.527344 39.75 L 71.457031 63.070312 L 53.550781 89.894531 L 18.621094 66.574219 Z M 36.527344 39.75 " clip-rule="nonzero"/></clipPath><clipPath id="ee7fb2fc77"><path d="M 36.527344 39.75 L 71.457031 63.070312 L 53.550781 89.894531 L 18.621094 66.574219 Z M 36.527344 39.75 " clip-rule="nonzero"/></clipPath><clipPath id="f2a55f9480"><path d="M 64 61 L 71 61 L 71 68 L 64 68 Z M 64 61 " clip-rule="nonzero"/></clipPath><clipPath id="41c75f1663"><path d="M 36.527344 39.75 L 71.457031 63.070312 L 53.550781 89.894531 L 18.621094 66.574219 Z M 36.527344 39.75 " clip-rule="nonzero"/></clipPath><clipPath id="440d5b9c52"><path d="M 36.527344 39.75 L 71.457031 63.070312 L 53.550781 89.894531 L 18.621094 66.574219 Z M 36.527344 39.75 " clip-rule="nonzero"/></clipPath><clipPath id="c198d1f213"><path d="M 36.527344 39.75 L 71.457031 63.070312 L 53.550781 89.894531 L 18.621094 66.574219 Z M 36.527344 39.75 " clip-rule="nonzero"/></clipPath><clipPath id="0470e62c31"><path d="M 36 41 L 45 41 L 45 83 L 36 83 Z M 36 41 " clip-rule="nonzero"/></clipPath><clipPath id="8859678ed5"><path d="M 36.527344 39.75 L 71.457031 63.070312 L 53.550781 89.894531 L 18.621094 66.574219 Z M 36.527344 39.75 " clip-rule="nonzero"/></clipPath><clipPath id="239494527e"><path d="M 36.527344 39.75 L 71.457031 63.070312 L 53.550781 89.894531 L 18.621094 66.574219 Z M 36.527344 39.75 " clip-rule="nonzero"/></clipPath><clipPath id="da3343dfa7"><path d="M 36.527344 39.75 L 71.457031 63.070312 L 53.550781 89.894531 L 18.621094 66.574219 Z M 36.527344 39.75 " clip-rule="nonzero"/></clipPath><clipPath id="734fecf2b0"><path d="M 20 62 L 63 62 L 63 78 L 20 78 Z M 20 62 " clip-rule="nonzero"/></clipPath><clipPath id="9c759f9346"><path d="M 36.527344 39.75 L 71.457031 63.070312 L 53.550781 89.894531 L 18.621094 66.574219 Z M 36.527344 39.75 " clip-rule="nonzero"/></clipPath><clipPath id="8b747e18c7"><path d="M 36.527344 39.75 L 71.457031 63.070312 L 53.550781 89.894531 L 18.621094 66.574219 Z M 36.527344 39.75 " clip-rule="nonzero"/></clipPath><clipPath id="8283fef360"><path d="M 36.527344 39.75 L 71.457031 63.070312 L 53.550781 89.894531 L 18.621094 66.574219 Z M 36.527344 39.75 " clip-rule="nonzero"/></clipPath><clipPath id="e9487edffe"><path d="M 27 49 L 59 49 L 59 87 L 27 87 Z M 27 49 " clip-rule="nonzero"/></clipPath><clipPath id="d1ad093d0c"><path d="M 36.527344 39.75 L 71.457031 63.070312 L 53.550781 89.894531 L 18.621094 66.574219 Z M 36.527344 39.75 " clip-rule="nonzero"/></clipPath><clipPath id="ce9b8966a2"><path d="M 36.527344 39.75 L 71.457031 63.070312 L 53.550781 89.894531 L 18.621094 66.574219 Z M 36.527344 39.75 " clip-rule="nonzero"/></clipPath><clipPath id="9fe3dd3253"><path d="M 36.527344 39.75 L 71.457031 63.070312 L 53.550781 89.894531 L 18.621094 66.574219 Z M 36.527344 39.75 " clip-rule="nonzero"/></clipPath><clipPath id="e81dcaed45"><path d="M 47 57 L 56 57 L 56 64 L 47 64 Z M 47 57 " clip-rule="nonzero"/></clipPath><clipPath id="b20bbf0fd8"><path d="M 36.527344 39.75 L 71.457031 63.070312 L 53.550781 89.894531 L 18.621094 66.574219 Z M 36.527344 39.75 " clip-rule="nonzero"/></clipPath><clipPath id="dccf316dc3"><path d="M 36.527344 39.75 L 71.457031 63.070312 L 53.550781 89.894531 L 18.621094 66.574219 Z M 36.527344 39.75 " clip-rule="nonzero"/></clipPath><clipPath id="0122f92326"><path d="M 36.527344 39.75 L 71.457031 63.070312 L 53.550781 89.894531 L 18.621094 66.574219 Z M 36.527344 39.75 " clip-rule="nonzero"/></clipPath><clipPath id="69ebddd07b"><path d="M 44 56 L 50 56 L 50 61 L 44 61 Z M 44 56 " clip-rule="nonzero"/></clipPath><clipPath id="993d5b8272"><path d="M 36.527344 39.75 L 71.457031 63.070312 L 53.550781 89.894531 L 18.621094 66.574219 Z M 36.527344 39.75 " clip-rule="nonzero"/></clipPath><clipPath id="df0fba829b"><path d="M 36.527344 39.75 L 71.457031 63.070312 L 53.550781 89.894531 L 18.621094 66.574219 Z M 36.527344 39.75 " clip-rule="nonzero"/></clipPath><clipPath id="bc7f887bb1"><path d="M 36.527344 39.75 L 71.457031 63.070312 L 53.550781 89.894531 L 18.621094 66.574219 Z M 36.527344 39.75 " clip-rule="nonzero"/></clipPath><clipPath id="cb16b6316e"><path d="M 33 65 L 39 65 L 39 74 L 33 74 Z M 33 65 " clip-rule="nonzero"/></clipPath><clipPath id="104b487222"><path d="M 36.527344 39.75 L 71.457031 63.070312 L 53.550781 89.894531 L 18.621094 66.574219 Z M 36.527344 39.75 " clip-rule="nonzero"/></clipPath><clipPath id="610cfe4f8d"><path d="M 36.527344 39.75 L 71.457031 63.070312 L 53.550781 89.894531 L 18.621094 66.574219 Z M 36.527344 39.75 " clip-rule="nonzero"/></clipPath><clipPath id="c48614806c"><path d="M 36.527344 39.75 L 71.457031 63.070312 L 53.550781 89.894531 L 18.621094 66.574219 Z M 36.527344 39.75 " clip-rule="nonzero"/></clipPath><clipPath id="7e1e9934d8"><path d="M 55 57 L 60 57 L 60 64 L 55 64 Z M 55 57 " clip-rule="nonzero"/></clipPath><clipPath id="0148591775"><path d="M 36.527344 39.75 L 71.457031 63.070312 L 53.550781 89.894531 L 18.621094 66.574219 Z M 36.527344 39.75 " clip-rule="nonzero"/></clipPath><clipPath id="e78fe4103d"><path d="M 36.527344 39.75 L 71.457031 63.070312 L 53.550781 89.894531 L 18.621094 66.574219 Z M 36.527344 39.75 " clip-rule="nonzero"/></clipPath><clipPath id="7f4d809423"><path d="M 36.527344 39.75 L 71.457031 63.070312 L 53.550781 89.894531 L 18.621094 66.574219 Z M 36.527344 39.75 " clip-rule="nonzero"/></clipPath><clipPath id="83db4a563d"><path d="M 31 71 L 37 71 L 37 76 L 31 76 Z M 31 71 " clip-rule="nonzero"/></clipPath><clipPath id="c0381fe859"><path d="M 36.527344 39.75 L 71.457031 63.070312 L 53.550781 89.894531 L 18.621094 66.574219 Z M 36.527344 39.75 " clip-rule="nonzero"/></clipPath><clipPath id="8dc12bea67"><path d="M 36.527344 39.75 L 71.457031 63.070312 L 53.550781 89.894531 L 18.621094 66.574219 Z M 36.527344 39.75 " clip-rule="nonzero"/></clipPath><clipPath id="8203a90a72"><path d="M 36.527344 39.75 L 71.457031 63.070312 L 53.550781 89.894531 L 18.621094 66.574219 Z M 36.527344 39.75 " clip-rule="nonzero"/></clipPath><clipPath id="710657b199"><path d="M 58 63 L 64 63 L 64 69 L 58 69 Z M 58 63 " clip-rule="nonzero"/></clipPath><clipPath id="ff956c3a14"><path d="M 36.527344 39.75 L 71.457031 63.070312 L 53.550781 89.894531 L 18.621094 66.574219 Z M 36.527344 39.75 " clip-rule="nonzero"/></clipPath><clipPath id="9ed5c89ebe"><path d="M 36.527344 39.75 L 71.457031 63.070312 L 53.550781 89.894531 L 18.621094 66.574219 Z M 36.527344 39.75 " clip-rule="nonzero"/></clipPath><clipPath id="2c539c843d"><path d="M 36.527344 39.75 L 71.457031 63.070312 L 53.550781 89.894531 L 18.621094 66.574219 Z M 36.527344 39.75 " clip-rule="nonzero"/></clipPath><clipPath id="249d2b2858"><path d="M 21 60 L 28 60 L 28 67 L 21 67 Z M 21 60 " clip-rule="nonzero"/></clipPath><clipPath id="4dbd04deb2"><path d="M 36.527344 39.75 L 71.457031 63.070312 L 53.550781 89.894531 L 18.621094 66.574219 Z M 36.527344 39.75 " clip-rule="nonzero"/></clipPath><clipPath id="86585788af"><path d="M 36.527344 39.75 L 71.457031 63.070312 L 53.550781 89.894531 L 18.621094 66.574219 Z M 36.527344 39.75 " clip-rule="nonzero"/></clipPath><clipPath id="ee0afba4f7"><path d="M 36.527344 39.75 L 71.457031 63.070312 L 53.550781 89.894531 L 18.621094 66.574219 Z M 36.527344 39.75 " clip-rule="nonzero"/></clipPath><clipPath id="a44197c652"><path d="M 26 70 L 32 70 L 32 75 L 26 75 Z M 26 70 " clip-rule="nonzero"/></clipPath><clipPath id="0be3ef5571"><path d="M 36.527344 39.75 L 71.457031 63.070312 L 53.550781 89.894531 L 18.621094 66.574219 Z M 36.527344 39.75 " clip-rule="nonzero"/></clipPath><clipPath id="c8f00e27b1"><path d="M 36.527344 39.75 L 71.457031 63.070312 L 53.550781 89.894531 L 18.621094 66.574219 Z M 36.527344 39.75 " clip-rule="nonzero"/></clipPath><clipPath id="a9e9661d40"><path d="M 36.527344 39.75 L 71.457031 63.070312 L 53.550781 89.894531 L 18.621094 66.574219 Z M 36.527344 39.75 " clip-rule="nonzero"/></clipPath><clipPath id="f780e733ca"><path d="M 24 58 L 31 58 L 31 64 L 24 64 Z M 24 58 " clip-rule="nonzero"/></clipPath><clipPath id="4f1fcf15ec"><path d="M 36.527344 39.75 L 71.457031 63.070312 L 53.550781 89.894531 L 18.621094 66.574219 Z M 36.527344 39.75 " clip-rule="nonzero"/></clipPath><clipPath id="ea3b28b562"><path d="M 36.527344 39.75 L 71.457031 63.070312 L 53.550781 89.894531 L 18.621094 66.574219 Z M 36.527344 39.75 " clip-rule="nonzero"/></clipPath><clipPath id="96c19f9cd6"><path d="M 36.527344 39.75 L 71.457031 63.070312 L 53.550781 89.894531 L 18.621094 66.574219 Z M 36.527344 39.75 " clip-rule="nonzero"/></clipPath><clipPath id="ad8cb3e009"><path d="M 24 63 L 34 63 L 34 72 L 24 72 Z M 24 63 " clip-rule="nonzero"/></clipPath><clipPath id="e2d5f2a02c"><path d="M 36.527344 39.75 L 71.457031 63.070312 L 53.550781 89.894531 L 18.621094 66.574219 Z M 36.527344 39.75 " clip-rule="nonzero"/></clipPath><clipPath id="2bf9bb3c0a"><path d="M 36.527344 39.75 L 71.457031 63.070312 L 53.550781 89.894531 L 18.621094 66.574219 Z M 36.527344 39.75 " clip-rule="nonzero"/></clipPath><clipPath id="5990a6ad65"><path d="M 36.527344 39.75 L 71.457031 63.070312 L 53.550781 89.894531 L 18.621094 66.574219 Z M 36.527344 39.75 " clip-rule="nonzero"/></clipPath><clipPath id="e7f85c3e40"><path d="M 59 58 L 65 58 L 65 64 L 59 64 Z M 59 58 " clip-rule="nonzero"/></clipPath><clipPath id="18ff6792c1"><path d="M 36.527344 39.75 L 71.457031 63.070312 L 53.550781 89.894531 L 18.621094 66.574219 Z M 36.527344 39.75 " clip-rule="nonzero"/></clipPath><clipPath id="a4f827c286"><path d="M 36.527344 39.75 L 71.457031 63.070312 L 53.550781 89.894531 L 18.621094 66.574219 Z M 36.527344 39.75 " clip-rule="nonzero"/></clipPath><clipPath id="80b5c98fe9"><path d="M 36.527344 39.75 L 71.457031 63.070312 L 53.550781 89.894531 L 18.621094 66.574219 Z M 36.527344 39.75 " clip-rule="nonzero"/></clipPath><clipPath id="70d4e90786"><path d="M 58 68 L 64 68 L 64 74 L 58 74 Z M 58 68 " clip-rule="nonzero"/></clipPath><clipPath id="074b8da03a"><path d="M 36.527344 39.75 L 71.457031 63.070312 L 53.550781 89.894531 L 18.621094 66.574219 Z M 36.527344 39.75 " clip-rule="nonzero"/></clipPath><clipPath id="f0ac8412fa"><path d="M 36.527344 39.75 L 71.457031 63.070312 L 53.550781 89.894531 L 18.621094 66.574219 Z M 36.527344 39.75 " clip-rule="nonzero"/></clipPath><clipPath id="488f6799ff"><path d="M 36.527344 39.75 L 71.457031 63.070312 L 53.550781 89.894531 L 18.621094 66.574219 Z M 36.527344 39.75 " clip-rule="nonzero"/></clipPath><clipPath id="6a3c537920"><path d="M 41 49 L 47 49 L 47 53 L 41 53 Z M 41 49 " clip-rule="nonzero"/></clipPath><clipPath id="ff4ec93792"><path d="M 36.527344 39.75 L 71.457031 63.070312 L 53.550781 89.894531 L 18.621094 66.574219 Z M 36.527344 39.75 " clip-rule="nonzero"/></clipPath><clipPath id="23355d8ac2"><path d="M 36.527344 39.75 L 71.457031 63.070312 L 53.550781 89.894531 L 18.621094 66.574219 Z M 36.527344 39.75 " clip-rule="nonzero"/></clipPath><clipPath id="8ffd2db59b"><path d="M 36.527344 39.75 L 71.457031 63.070312 L 53.550781 89.894531 L 18.621094 66.574219 Z M 36.527344 39.75 " clip-rule="nonzero"/></clipPath><clipPath id="87f0b506ad"><path d="M 50 53 L 54 53 L 54 58 L 50 58 Z M 50 53 " clip-rule="nonzero"/></clipPath><clipPath id="6978571434"><path d="M 36.527344 39.75 L 71.457031 63.070312 L 53.550781 89.894531 L 18.621094 66.574219 Z M 36.527344 39.75 " clip-rule="nonzero"/></clipPath><clipPath id="256538ac62"><path d="M 36.527344 39.75 L 71.457031 63.070312 L 53.550781 89.894531 L 18.621094 66.574219 Z M 36.527344 39.75 " clip-rule="nonzero"/></clipPath><clipPath id="40305b85a6"><path d="M 36.527344 39.75 L 71.457031 63.070312 L 53.550781 89.894531 L 18.621094 66.574219 Z M 36.527344 39.75 " clip-rule="nonzero"/></clipPath><clipPath id="070249e927"><path d="M 23 67 L 28 67 L 28 72 L 23 72 Z M 23 67 " clip-rule="nonzero"/></clipPath><clipPath id="4baaa93103"><path d="M 36.527344 39.75 L 71.457031 63.070312 L 53.550781 89.894531 L 18.621094 66.574219 Z M 36.527344 39.75 " clip-rule="nonzero"/></clipPath><clipPath id="664cf8e9d1"><path d="M 36.527344 39.75 L 71.457031 63.070312 L 53.550781 89.894531 L 18.621094 66.574219 Z M 36.527344 39.75 " clip-rule="nonzero"/></clipPath><clipPath id="945a0137a3"><path d="M 36.527344 39.75 L 71.457031 63.070312 L 53.550781 89.894531 L 18.621094 66.574219 Z M 36.527344 39.75 " clip-rule="nonzero"/></clipPath><clipPath id="dbca733b53"><path d="M 31 52 L 44 52 L 44 75 L 31 75 Z M 31 52 " clip-rule="nonzero"/></clipPath><clipPath id="711cb7770a"><path d="M 36.527344 39.75 L 71.457031 63.070312 L 53.550781 89.894531 L 18.621094 66.574219 Z M 36.527344 39.75 " clip-rule="nonzero"/></clipPath><clipPath id="7e4362bee1"><path d="M 36.527344 39.75 L 71.457031 63.070312 L 53.550781 89.894531 L 18.621094 66.574219 Z M 36.527344 39.75 " clip-rule="nonzero"/></clipPath><clipPath id="f7d9a1b86c"><path d="M 36.527344 39.75 L 71.457031 63.070312 L 53.550781 89.894531 L 18.621094 66.574219 Z M 36.527344 39.75 " clip-rule="nonzero"/></clipPath><clipPath id="7920a76055"><path d="M 37 53 L 51 53 L 51 76 L 37 76 Z M 37 53 " clip-rule="nonzero"/></clipPath><clipPath id="01466d1c03"><path d="M 36.527344 39.75 L 71.457031 63.070312 L 53.550781 89.894531 L 18.621094 66.574219 Z M 36.527344 39.75 " clip-rule="nonzero"/></clipPath><clipPath id="88d15c77a4"><path d="M 36.527344 39.75 L 71.457031 63.070312 L 53.550781 89.894531 L 18.621094 66.574219 Z M 36.527344 39.75 " clip-rule="nonzero"/></clipPath><clipPath id="d24371a461"><path d="M 36.527344 39.75 L 71.457031 63.070312 L 53.550781 89.894531 L 18.621094 66.574219 Z M 36.527344 39.75 " clip-rule="nonzero"/></clipPath><clipPath id="01a6d00dd0"><path d="M 46 62 L 58 62 L 58 77 L 46 77 Z M 46 62 " clip-rule="nonzero"/></clipPath><clipPath id="ca60c23495"><path d="M 36.527344 39.75 L 71.457031 63.070312 L 53.550781 89.894531 L 18.621094 66.574219 Z M 36.527344 39.75 " clip-rule="nonzero"/></clipPath><clipPath id="4c801e2d48"><path d="M 36.527344 39.75 L 71.457031 63.070312 L 53.550781 89.894531 L 18.621094 66.574219 Z M 36.527344 39.75 " clip-rule="nonzero"/></clipPath><clipPath id="f8c25e3d4b"><path d="M 36.527344 39.75 L 71.457031 63.070312 L 53.550781 89.894531 L 18.621094 66.574219 Z M 36.527344 39.75 " clip-rule="nonzero"/></clipPath><clipPath id="3bf64ad752"><path d="M 54 65 L 58 65 L 58 71 L 54 71 Z M 54 65 " clip-rule="nonzero"/></clipPath><clipPath id="5c263f33f9"><path d="M 36.527344 39.75 L 71.457031 63.070312 L 53.550781 89.894531 L 18.621094 66.574219 Z M 36.527344 39.75 " clip-rule="nonzero"/></clipPath><clipPath id="ccd77a3f57"><path d="M 36.527344 39.75 L 71.457031 63.070312 L 53.550781 89.894531 L 18.621094 66.574219 Z M 36.527344 39.75 " clip-rule="nonzero"/></clipPath><clipPath id="6890f08a30"><path d="M 36.527344 39.75 L 71.457031 63.070312 L 53.550781 89.894531 L 18.621094 66.574219 Z M 36.527344 39.75 " clip-rule="nonzero"/></clipPath><clipPath id="89d884022e"><path d="M 50 76 L 55 76 L 55 81 L 50 81 Z M 50 76 " clip-rule="nonzero"/></clipPath><clipPath id="bcd5f87476"><path d="M 36.527344 39.75 L 71.457031 63.070312 L 53.550781 89.894531 L 18.621094 66.574219 Z M 36.527344 39.75 " clip-rule="nonzero"/></clipPath><clipPath id="1ecd807dac"><path d="M 36.527344 39.75 L 71.457031 63.070312 L 53.550781 89.894531 L 18.621094 66.574219 Z M 36.527344 39.75 " clip-rule="nonzero"/></clipPath><clipPath id="7d48d6a35f"><path d="M 36.527344 39.75 L 71.457031 63.070312 L 53.550781 89.894531 L 18.621094 66.574219 Z M 36.527344 39.75 " clip-rule="nonzero"/></clipPath><clipPath id="889c98bd16"><path d="M 50 70 L 58 70 L 58 76 L 50 76 Z M 50 70 " clip-rule="nonzero"/></clipPath><clipPath id="0924ee1ab3"><path d="M 36.527344 39.75 L 71.457031 63.070312 L 53.550781 89.894531 L 18.621094 66.574219 Z M 36.527344 39.75 " clip-rule="nonzero"/></clipPath><clipPath id="e366b3e332"><path d="M 36.527344 39.75 L 71.457031 63.070312 L 53.550781 89.894531 L 18.621094 66.574219 Z M 36.527344 39.75 " clip-rule="nonzero"/></clipPath><clipPath id="d33080068a"><path d="M 36.527344 39.75 L 71.457031 63.070312 L 53.550781 89.894531 L 18.621094 66.574219 Z M 36.527344 39.75 " clip-rule="nonzero"/></clipPath><clipPath id="1bafa8d244"><path d="M 45 78 L 50 78 L 50 83 L 45 83 Z M 45 78 " clip-rule="nonzero"/></clipPath><clipPath id="cf252f152a"><path d="M 36.527344 39.75 L 71.457031 63.070312 L 53.550781 89.894531 L 18.621094 66.574219 Z M 36.527344 39.75 " clip-rule="nonzero"/></clipPath><clipPath id="bd00354a4d"><path d="M 36.527344 39.75 L 71.457031 63.070312 L 53.550781 89.894531 L 18.621094 66.574219 Z M 36.527344 39.75 " clip-rule="nonzero"/></clipPath><clipPath id="7e30ab4e46"><path d="M 36.527344 39.75 L 71.457031 63.070312 L 53.550781 89.894531 L 18.621094 66.574219 Z M 36.527344 39.75 " clip-rule="nonzero"/></clipPath><clipPath id="4ef990674c"><path d="M 26 52 L 36 52 L 36 61 L 26 61 Z M 26 52 " clip-rule="nonzero"/></clipPath><clipPath id="1014b30e3b"><path d="M 36.527344 39.75 L 71.457031 63.070312 L 53.550781 89.894531 L 18.621094 66.574219 Z M 36.527344 39.75 " clip-rule="nonzero"/></clipPath><clipPath id="60f3e72fac"><path d="M 36.527344 39.75 L 71.457031 63.070312 L 53.550781 89.894531 L 18.621094 66.574219 Z M 36.527344 39.75 " clip-rule="nonzero"/></clipPath><clipPath id="fb1355c20f"><path d="M 36.527344 39.75 L 71.457031 63.070312 L 53.550781 89.894531 L 18.621094 66.574219 Z M 36.527344 39.75 " clip-rule="nonzero"/></clipPath><clipPath id="2f127e29be"><path d="M 31 75 L 36 75 L 36 78 L 31 78 Z M 31 75 " clip-rule="nonzero"/></clipPath><clipPath id="d252dcb385"><path d="M 36.527344 39.75 L 71.457031 63.070312 L 53.550781 89.894531 L 18.621094 66.574219 Z M 36.527344 39.75 " clip-rule="nonzero"/></clipPath><clipPath id="2159723cdf"><path d="M 36.527344 39.75 L 71.457031 63.070312 L 53.550781 89.894531 L 18.621094 66.574219 Z M 36.527344 39.75 " clip-rule="nonzero"/></clipPath><clipPath id="c6914c7a22"><path d="M 36.527344 39.75 L 71.457031 63.070312 L 53.550781 89.894531 L 18.621094 66.574219 Z M 36.527344 39.75 " clip-rule="nonzero"/></clipPath><clipPath id="9069442d34"><path d="M 28 47 L 32 47 L 32 53 L 28 53 Z M 28 47 " clip-rule="nonzero"/></clipPath><clipPath id="37d0dfe586"><path d="M 36.527344 39.75 L 71.457031 63.070312 L 53.550781 89.894531 L 18.621094 66.574219 Z M 36.527344 39.75 " clip-rule="nonzero"/></clipPath><clipPath id="9136596e61"><path d="M 36.527344 39.75 L 71.457031 63.070312 L 53.550781 89.894531 L 18.621094 66.574219 Z M 36.527344 39.75 " clip-rule="nonzero"/></clipPath><clipPath id="668073ff9d"><path d="M 36.527344 39.75 L 71.457031 63.070312 L 53.550781 89.894531 L 18.621094 66.574219 Z M 36.527344 39.75 " clip-rule="nonzero"/></clipPath><clipPath id="eb94577de6"><path d="M 46 46 L 52 46 L 52 54 L 46 54 Z M 46 46 " clip-rule="nonzero"/></clipPath><clipPath id="f58c7a7de2"><path d="M 36.527344 39.75 L 71.457031 63.070312 L 53.550781 89.894531 L 18.621094 66.574219 Z M 36.527344 39.75 " clip-rule="nonzero"/></clipPath><clipPath id="008f2dc425"><path d="M 36.527344 39.75 L 71.457031 63.070312 L 53.550781 89.894531 L 18.621094 66.574219 Z M 36.527344 39.75 " clip-rule="nonzero"/></clipPath><clipPath id="577e6bca40"><path d="M 36.527344 39.75 L 71.457031 63.070312 L 53.550781 89.894531 L 18.621094 66.574219 Z M 36.527344 39.75 " clip-rule="nonzero"/></clipPath><clipPath id="b42b71ba7f"><path d="M 37 42 L 46 42 L 46 53 L 37 53 Z M 37 42 " clip-rule="nonzero"/></clipPath><clipPath id="00efbb7da6"><path d="M 36.527344 39.75 L 71.457031 63.070312 L 53.550781 89.894531 L 18.621094 66.574219 Z M 36.527344 39.75 " clip-rule="nonzero"/></clipPath><clipPath id="8e4e90fc78"><path d="M 36.527344 39.75 L 71.457031 63.070312 L 53.550781 89.894531 L 18.621094 66.574219 Z M 36.527344 39.75 " clip-rule="nonzero"/></clipPath><clipPath id="d479358d2a"><path d="M 36.527344 39.75 L 71.457031 63.070312 L 53.550781 89.894531 L 18.621094 66.574219 Z M 36.527344 39.75 " clip-rule="nonzero"/></clipPath><clipPath id="16688357f8"><path d="M 31 39 L 40 39 L 40 53 L 31 53 Z M 31 39 " clip-rule="nonzero"/></clipPath><clipPath id="dcd1eeb9a1"><path d="M 36.527344 39.75 L 71.457031 63.070312 L 53.550781 89.894531 L 18.621094 66.574219 Z M 36.527344 39.75 " clip-rule="nonzero"/></clipPath><clipPath id="2761c4aa06"><path d="M 36.527344 39.75 L 71.457031 63.070312 L 53.550781 89.894531 L 18.621094 66.574219 Z M 36.527344 39.75 " clip-rule="nonzero"/></clipPath><clipPath id="8bb3fe64ed"><path d="M 36.527344 39.75 L 71.457031 63.070312 L 53.550781 89.894531 L 18.621094 66.574219 Z M 36.527344 39.75 " clip-rule="nonzero"/></clipPath><clipPath id="7420dab000"><path d="M 18 63 L 24 63 L 24 70 L 18 70 Z M 18 63 " clip-rule="nonzero"/></clipPath><clipPath id="8a71db5925"><path d="M 36.527344 39.75 L 71.457031 63.070312 L 53.550781 89.894531 L 18.621094 66.574219 Z M 36.527344 39.75 " clip-rule="nonzero"/></clipPath><clipPath id="b2f06ec1c0"><path d="M 36.527344 39.75 L 71.457031 63.070312 L 53.550781 89.894531 L 18.621094 66.574219 Z M 36.527344 39.75 " clip-rule="nonzero"/></clipPath><clipPath id="8cb23bfca5"><path d="M 36.527344 39.75 L 71.457031 63.070312 L 53.550781 89.894531 L 18.621094 66.574219 Z M 36.527344 39.75 " clip-rule="nonzero"/></clipPath><clipPath id="41fcc1d4a1"><path d="M 21 59 L 25 59 L 25 64 L 21 64 Z M 21 59 " clip-rule="nonzero"/></clipPath><clipPath id="b8491da14b"><path d="M 36.527344 39.75 L 71.457031 63.070312 L 53.550781 89.894531 L 18.621094 66.574219 Z M 36.527344 39.75 " clip-rule="nonzero"/></clipPath><clipPath id="c0694a7772"><path d="M 36.527344 39.75 L 71.457031 63.070312 L 53.550781 89.894531 L 18.621094 66.574219 Z M 36.527344 39.75 " clip-rule="nonzero"/></clipPath><clipPath id="9dd54f3cf3"><path d="M 36.527344 39.75 L 71.457031 63.070312 L 53.550781 89.894531 L 18.621094 66.574219 Z M 36.527344 39.75 " clip-rule="nonzero"/></clipPath><clipPath id="a28365781b"><path d="M 23 56 L 27 56 L 27 60 L 23 60 Z M 23 56 " clip-rule="nonzero"/></clipPath><clipPath id="9cc821fd8c"><path d="M 36.527344 39.75 L 71.457031 63.070312 L 53.550781 89.894531 L 18.621094 66.574219 Z M 36.527344 39.75 " clip-rule="nonzero"/></clipPath><clipPath id="8546fdeb89"><path d="M 36.527344 39.75 L 71.457031 63.070312 L 53.550781 89.894531 L 18.621094 66.574219 Z M 36.527344 39.75 " clip-rule="nonzero"/></clipPath><clipPath id="7610c58f74"><path d="M 36.527344 39.75 L 71.457031 63.070312 L 53.550781 89.894531 L 18.621094 66.574219 Z M 36.527344 39.75 " clip-rule="nonzero"/></clipPath><clipPath id="b7bfe1e94b"><path d="M 25 55 L 30 55 L 30 58 L 25 58 Z M 25 55 " clip-rule="nonzero"/></clipPath><clipPath id="405a9c71e2"><path d="M 36.527344 39.75 L 71.457031 63.070312 L 53.550781 89.894531 L 18.621094 66.574219 Z M 36.527344 39.75 " clip-rule="nonzero"/></clipPath><clipPath id="8fb32e1d44"><path d="M 36.527344 39.75 L 71.457031 63.070312 L 53.550781 89.894531 L 18.621094 66.574219 Z M 36.527344 39.75 " clip-rule="nonzero"/></clipPath><clipPath id="884bdea79f"><path d="M 36.527344 39.75 L 71.457031 63.070312 L 53.550781 89.894531 L 18.621094 66.574219 Z M 36.527344 39.75 " clip-rule="nonzero"/></clipPath><clipPath id="efd90a1143"><path d="M 51 50 L 58 50 L 58 54 L 51 54 Z M 51 50 " clip-rule="nonzero"/></clipPath><clipPath id="b0ee54a8aa"><path d="M 36.527344 39.75 L 71.457031 63.070312 L 53.550781 89.894531 L 18.621094 66.574219 Z M 36.527344 39.75 " clip-rule="nonzero"/></clipPath><clipPath id="ed9cf69938"><path d="M 36.527344 39.75 L 71.457031 63.070312 L 53.550781 89.894531 L 18.621094 66.574219 Z M 36.527344 39.75 " clip-rule="nonzero"/></clipPath><clipPath id="aa11a8b77c"><path d="M 36.527344 39.75 L 71.457031 63.070312 L 53.550781 89.894531 L 18.621094 66.574219 Z M 36.527344 39.75 " clip-rule="nonzero"/></clipPath><clipPath id="46f08a21bf"><path d="M 52 80 L 60 80 L 60 87 L 52 87 Z M 52 80 " clip-rule="nonzero"/></clipPath><clipPath id="0115976314"><path d="M 36.527344 39.75 L 71.457031 63.070312 L 53.550781 89.894531 L 18.621094 66.574219 Z M 36.527344 39.75 " clip-rule="nonzero"/></clipPath><clipPath id="4f45ce7929"><path d="M 36.527344 39.75 L 71.457031 63.070312 L 53.550781 89.894531 L 18.621094 66.574219 Z M 36.527344 39.75 " clip-rule="nonzero"/></clipPath><clipPath id="196ea86929"><path d="M 36.527344 39.75 L 71.457031 63.070312 L 53.550781 89.894531 L 18.621094 66.574219 Z M 36.527344 39.75 " clip-rule="nonzero"/></clipPath><clipPath id="f1b04273dc"><path d="M 49 77 L 55 77 L 55 86 L 49 86 Z M 49 77 " clip-rule="nonzero"/></clipPath><clipPath id="21a499cf84"><path d="M 36.527344 39.75 L 71.457031 63.070312 L 53.550781 89.894531 L 18.621094 66.574219 Z M 36.527344 39.75 " clip-rule="nonzero"/></clipPath><clipPath id="3045678a87"><path d="M 36.527344 39.75 L 71.457031 63.070312 L 53.550781 89.894531 L 18.621094 66.574219 Z M 36.527344 39.75 " clip-rule="nonzero"/></clipPath><clipPath id="9b173cf839"><path d="M 36.527344 39.75 L 71.457031 63.070312 L 53.550781 89.894531 L 18.621094 66.574219 Z M 36.527344 39.75 " clip-rule="nonzero"/></clipPath><clipPath id="381334ac5b"><path d="M 50 85 L 56 85 L 56 90 L 50 90 Z M 50 85 " clip-rule="nonzero"/></clipPath><clipPath id="ab75484d05"><path d="M 36.527344 39.75 L 71.457031 63.070312 L 53.550781 89.894531 L 18.621094 66.574219 Z M 36.527344 39.75 " clip-rule="nonzero"/></clipPath><clipPath id="93ed6f0fba"><path d="M 36.527344 39.75 L 71.457031 63.070312 L 53.550781 89.894531 L 18.621094 66.574219 Z M 36.527344 39.75 " clip-rule="nonzero"/></clipPath><clipPath id="4b6c2b18f5"><path d="M 36.527344 39.75 L 71.457031 63.070312 L 53.550781 89.894531 L 18.621094 66.574219 Z M 36.527344 39.75 " clip-rule="nonzero"/></clipPath><clipPath id="d663ec507e"><path d="M 34 73 L 44 73 L 44 83 L 34 83 Z M 34 73 " clip-rule="nonzero"/></clipPath><clipPath id="afee1b6f18"><path d="M 36.527344 39.75 L 71.457031 63.070312 L 53.550781 89.894531 L 18.621094 66.574219 Z M 36.527344 39.75 " clip-rule="nonzero"/></clipPath><clipPath id="e744727baf"><path d="M 36.527344 39.75 L 71.457031 63.070312 L 53.550781 89.894531 L 18.621094 66.574219 Z M 36.527344 39.75 " clip-rule="nonzero"/></clipPath><clipPath id="947979abfa"><path d="M 36.527344 39.75 L 71.457031 63.070312 L 53.550781 89.894531 L 18.621094 66.574219 Z M 36.527344 39.75 " clip-rule="nonzero"/></clipPath><clipPath id="ce61ed17bc"><path d="M 42 75 L 50 75 L 50 85 L 42 85 Z M 42 75 " clip-rule="nonzero"/></clipPath><clipPath id="0ea372da4c"><path d="M 36.527344 39.75 L 71.457031 63.070312 L 53.550781 89.894531 L 18.621094 66.574219 Z M 36.527344 39.75 " clip-rule="nonzero"/></clipPath><clipPath id="d3a922f151"><path d="M 36.527344 39.75 L 71.457031 63.070312 L 53.550781 89.894531 L 18.621094 66.574219 Z M 36.527344 39.75 " clip-rule="nonzero"/></clipPath><clipPath id="e114c98629"><path d="M 36.527344 39.75 L 71.457031 63.070312 L 53.550781 89.894531 L 18.621094 66.574219 Z M 36.527344 39.75 " clip-rule="nonzero"/></clipPath><clipPath id="ddebf4cee2"><path d="M 54 73 L 64 73 L 64 77 L 54 77 Z M 54 73 " clip-rule="nonzero"/></clipPath><clipPath id="0f3a40e61a"><path d="M 36.527344 39.75 L 71.457031 63.070312 L 53.550781 89.894531 L 18.621094 66.574219 Z M 36.527344 39.75 " clip-rule="nonzero"/></clipPath><clipPath id="c4ea953233"><path d="M 36.527344 39.75 L 71.457031 63.070312 L 53.550781 89.894531 L 18.621094 66.574219 Z M 36.527344 39.75 " clip-rule="nonzero"/></clipPath><clipPath id="71ee4dc417"><path d="M 36.527344 39.75 L 71.457031 63.070312 L 53.550781 89.894531 L 18.621094 66.574219 Z M 36.527344 39.75 " clip-rule="nonzero"/></clipPath><clipPath id="5840080f1b"><path d="M 54 77 L 62 77 L 62 81 L 54 81 Z M 54 77 " clip-rule="nonzero"/></clipPath><clipPath id="fb4f47b2b2"><path d="M 36.527344 39.75 L 71.457031 63.070312 L 53.550781 89.894531 L 18.621094 66.574219 Z M 36.527344 39.75 " clip-rule="nonzero"/></clipPath><clipPath id="ada19b025b"><path d="M 36.527344 39.75 L 71.457031 63.070312 L 53.550781 89.894531 L 18.621094 66.574219 Z M 36.527344 39.75 " clip-rule="nonzero"/></clipPath><clipPath id="19713f2b0f"><path d="M 36.527344 39.75 L 71.457031 63.070312 L 53.550781 89.894531 L 18.621094 66.574219 Z M 36.527344 39.75 " clip-rule="nonzero"/></clipPath><clipPath id="05885bfa2d"><path d="M 64 58 L 72 58 L 72 64 L 64 64 Z M 64 58 " clip-rule="nonzero"/></clipPath><clipPath id="1a15fc3cfb"><path d="M 36.527344 39.75 L 71.457031 63.070312 L 53.550781 89.894531 L 18.621094 66.574219 Z M 36.527344 39.75 " clip-rule="nonzero"/></clipPath><clipPath id="aa3fa1bc86"><path d="M 36.527344 39.75 L 71.457031 63.070312 L 53.550781 89.894531 L 18.621094 66.574219 Z M 36.527344 39.75 " clip-rule="nonzero"/></clipPath><clipPath id="971990c279"><path d="M 36.527344 39.75 L 71.457031 63.070312 L 53.550781 89.894531 L 18.621094 66.574219 Z M 36.527344 39.75 " clip-rule="nonzero"/></clipPath><clipPath id="442771b185"><path d="M 59 55 L 65 55 L 65 59 L 59 59 Z M 59 55 " clip-rule="nonzero"/></clipPath><clipPath id="2e3db0254e"><path d="M 36.527344 39.75 L 71.457031 63.070312 L 53.550781 89.894531 L 18.621094 66.574219 Z M 36.527344 39.75 " clip-rule="nonzero"/></clipPath><clipPath id="78ee3f4577"><path d="M 36.527344 39.75 L 71.457031 63.070312 L 53.550781 89.894531 L 18.621094 66.574219 Z M 36.527344 39.75 " clip-rule="nonzero"/></clipPath><clipPath id="2182a58722"><path d="M 36.527344 39.75 L 71.457031 63.070312 L 53.550781 89.894531 L 18.621094 66.574219 Z M 36.527344 39.75 " clip-rule="nonzero"/></clipPath><clipPath id="0119bad311"><path d="M 52 53 L 60 53 L 60 59 L 52 59 Z M 52 53 " clip-rule="nonzero"/></clipPath><clipPath id="1e0ff6583e"><path d="M 36.527344 39.75 L 71.457031 63.070312 L 53.550781 89.894531 L 18.621094 66.574219 Z M 36.527344 39.75 " clip-rule="nonzero"/></clipPath><clipPath id="72e240d875"><path d="M 36.527344 39.75 L 71.457031 63.070312 L 53.550781 89.894531 L 18.621094 66.574219 Z M 36.527344 39.75 " clip-rule="nonzero"/></clipPath><clipPath id="e638eb3f1c"><path d="M 36.527344 39.75 L 71.457031 63.070312 L 53.550781 89.894531 L 18.621094 66.574219 Z M 36.527344 39.75 " clip-rule="nonzero"/></clipPath><clipPath id="7bff5fc900"><path d="M 27.378906 7.441406 L 62.710938 7.441406 L 62.710938 61 L 27.378906 61 Z M 27.378906 7.441406 " clip-rule="nonzero"/></clipPath></defs><g clip-path="url(#476c0e621d)"><g clip-path="url(#4b73919a89)"><g clip-path="url(#630a4278ed)"><g clip-path="url(#bc7ea6e4d9)"><path fill="#ffffff" d="M 36.527344 39.75 L 71.449219 63.066406 L 53.542969 89.886719 L 18.621094 66.574219 Z M 36.527344 39.75 " fill-opacity="1" fill-rule="nonzero"/></g></g></g></g><g clip-path="url(#3f39e24242)"><g clip-path="url(#f788287c49)"><g clip-path="url(#a0c217ebf8)"><g clip-path="url(#d50fa77cb9)"><path fill="#aee06b" d="M 49.949219 87.480469 L 49.691406 82.542969 L 45.949219 81.898438 L 46.308594 84.917969 C 46.3125 84.957031 46.300781 85.003906 46.277344 85.039062 L 49.945312 87.484375 Z M 49.949219 87.480469 " fill-opacity="1" fill-rule="nonzero"/></g></g></g></g><g clip-path="url(#1c26e6e1f7)"><g clip-path="url(#5fa3f8fd5d)"><g clip-path="url(#0baf4f63bb)"><g clip-path="url(#34f445dcea)"><path fill="#aee06b" d="M 64.042969 69.0625 L 66.101562 71.078125 L 68.300781 67.777344 L 64.132812 66.957031 Z M 64.042969 69.0625 " fill-opacity="1" fill-rule="nonzero"/></g></g></g></g><g clip-path="url(#9f79ecea0f)"><g clip-path="url(#ccbaefcac6)"><g clip-path="url(#4f4158b020)"><g clip-path="url(#0ebde82260)"><path fill="#aee06b" d="M 33.308594 67.773438 L 34.792969 64.671875 L 33.96875 62.972656 L 31.273438 61.171875 L 28.410156 63.691406 L 30.707031 66.117188 Z M 33.308594 67.773438 " fill-opacity="1" fill-rule="nonzero"/></g></g></g></g><g clip-path="url(#d059f84919)"><g clip-path="url(#127951f0e3)"><g clip-path="url(#0ed6481aaf)"><g clip-path="url(#dbab52017d)"><path fill="#aee06b" d="M 65.898438 71.375 C 65.894531 71.371094 65.886719 71.367188 65.878906 71.363281 L 64.019531 69.535156 L 63.808594 74.507812 Z M 65.898438 71.375 " fill-opacity="1" fill-rule="nonzero"/></g></g></g></g><g clip-path="url(#bbdd7a6842)"><g clip-path="url(#a3bc126b9d)"><g clip-path="url(#1b37578ea2)"><g clip-path="url(#ee7fb2fc77)"><path fill="#aee06b" d="M 40.882812 45.554688 L 41.078125 49.101562 L 46.722656 49.386719 L 46.566406 46.585938 C 46.558594 46.550781 46.570312 46.515625 46.589844 46.488281 L 45.792969 45.957031 Z M 40.882812 45.554688 " fill-opacity="1" fill-rule="nonzero"/></g></g></g></g><g clip-path="url(#f2a55f9480)"><g clip-path="url(#41c75f1663)"><g clip-path="url(#440d5b9c52)"><g clip-path="url(#c198d1f213)"><path fill="#aee06b" d="M 64.375 61.453125 L 64.15625 66.609375 L 68.449219 67.453125 C 68.472656 67.460938 68.492188 67.460938 68.515625 67.476562 L 70.996094 63.757812 L 68.273438 62.375 Z M 64.375 61.453125 " fill-opacity="1" fill-rule="nonzero"/></g></g></g></g><g clip-path="url(#0470e62c31)"><g clip-path="url(#8859678ed5)"><g clip-path="url(#239494527e)"><g clip-path="url(#da3343dfa7)"><path fill="#82c4ff" d="M 36.597656 46.570312 C 36.132812 48.386719 36.085938 50.195312 36.449219 51.96875 C 36.894531 54.15625 37.988281 56.273438 39.683594 58.242188 C 41.257812 60.070312 42.355469 62.453125 42.945312 65.332031 C 43.421875 67.660156 43.566406 70.304688 43.375 73.207031 C 43.046875 78.171875 41.867188 82.042969 41.859375 82.085938 L 42.773438 82.695312 C 42.78125 82.652344 43.144531 81.488281 43.492188 79.835938 C 44.074219 77.085938 44.324219 74.765625 44.414062 73.296875 C 44.617188 70.300781 44.460938 67.550781 43.976562 65.132812 C 43.355469 62.074219 42.175781 59.523438 40.480469 57.558594 C 38.914062 55.734375 37.90625 53.792969 37.488281 51.785156 C 37.15625 50.183594 37.199219 48.53125 37.617188 46.878906 C 37.980469 45.390625 38.59375 44.171875 39.042969 43.414062 C 39.527344 42.578125 39.96875 42.070312 39.972656 42.0625 L 39.085938 41.46875 C 39.015625 41.5625 37.371094 43.496094 36.597656 46.570312 Z M 36.597656 46.570312 " fill-opacity="1" fill-rule="nonzero"/></g></g></g></g><g clip-path="url(#734fecf2b0)"><g clip-path="url(#9c759f9346)"><g clip-path="url(#8b747e18c7)"><g clip-path="url(#8283fef360)"><path fill="#ffffff" d="M 62.234375 76.871094 L 61.726562 77.628906 L 49.558594 76.921875 L 49.519531 76.917969 L 26.429688 70.046875 L 20.652344 63.53125 L 21.054688 62.925781 L 26.820312 69.429688 L 49.675781 76.226562 Z M 62.234375 76.871094 " fill-opacity="1" fill-rule="nonzero"/></g></g></g></g><g clip-path="url(#e9487edffe)"><g clip-path="url(#d1ad093d0c)"><g clip-path="url(#ce9b8966a2)"><g clip-path="url(#9fe3dd3253)"><path fill="#ffcd00" d="M 27.988281 52.539062 L 50.34375 53.875 L 49.3125 57.023438 L 46.628906 61.039062 L 46.164062 71.644531 L 55.5625 86.859375 L 55.988281 86.226562 L 46.871094 71.464844 L 47.324219 61.269531 L 49.953125 57.328125 L 51.058594 53.921875 L 58.589844 54.5 L 57.40625 53.710938 L 51.285156 53.234375 L 52.253906 50.269531 L 51.652344 49.871094 L 50.570312 53.183594 L 28.4375 51.871094 Z M 27.988281 52.539062 " fill-opacity="1" fill-rule="nonzero"/></g></g></g></g><g clip-path="url(#e81dcaed45)"><g clip-path="url(#b20bbf0fd8)"><g clip-path="url(#dccf316dc3)"><g clip-path="url(#0122f92326)"><path fill="#f2f2f2" d="M 54.003906 57.808594 C 54 57.804688 54 57.804688 54.003906 57.808594 L 49.917969 57.386719 L 47.324219 61.269531 L 47.28125 62.347656 L 55.183594 63.015625 L 55.265625 57.9375 Z M 54.003906 57.808594 " fill-opacity="1" fill-rule="nonzero"/></g></g></g></g><g clip-path="url(#69ebddd07b)"><g clip-path="url(#993d5b8272)"><g clip-path="url(#df0fba829b)"><g clip-path="url(#bc7f887bb1)"><path fill="#f2f2f2" d="M 46.890625 60.648438 L 49.136719 57.285156 L 44.613281 56.664062 Z M 46.890625 60.648438 " fill-opacity="1" fill-rule="nonzero"/></g></g></g></g><g clip-path="url(#cb16b6316e)"><g clip-path="url(#104b487222)"><g clip-path="url(#610cfe4f8d)"><g clip-path="url(#c48614806c)"><path fill="#f2f2f2" d="M 37.128906 69.507812 L 34.984375 65.078125 L 33.566406 68.054688 L 34.066406 70.554688 C 34.074219 70.589844 34.070312 70.628906 34.058594 70.660156 L 33.703125 71.492188 L 38.8125 73.007812 Z M 37.128906 69.507812 " fill-opacity="1" fill-rule="nonzero"/></g></g></g></g><g clip-path="url(#7e1e9934d8)"><g clip-path="url(#0148591775)"><g clip-path="url(#e78fe4103d)"><g clip-path="url(#7f4d809423)"><path fill="#f2f2f2" d="M 55.605469 57.972656 L 55.523438 63.050781 L 59.324219 63.363281 L 59.53125 58.378906 Z M 55.605469 57.972656 " fill-opacity="1" fill-rule="nonzero"/></g></g></g></g><g clip-path="url(#83db4a563d)"><g clip-path="url(#c0381fe859)"><g clip-path="url(#8dc12bea67)"><g clip-path="url(#8203a90a72)"><path fill="#f2f2f2" d="M 36.589844 73.066406 L 32.300781 71.792969 L 31.042969 74.585938 L 35.289062 75.980469 Z M 36.589844 73.066406 " fill-opacity="1" fill-rule="nonzero"/></g></g></g></g><g clip-path="url(#710657b199)"><g clip-path="url(#ff956c3a14)"><g clip-path="url(#9ed5c89ebe)"><g clip-path="url(#2c539c843d)"><path fill="#f2f2f2" d="M 63.796875 66.722656 L 63.910156 64.101562 L 59.488281 63.734375 C 59.488281 63.734375 59.484375 63.730469 59.476562 63.738281 C 59.472656 63.734375 59.460938 63.734375 59.460938 63.734375 L 58.222656 63.636719 L 58.113281 68.523438 L 63.703125 68.933594 L 63.796875 66.753906 C 63.792969 66.742188 63.789062 66.738281 63.796875 66.722656 Z M 63.796875 66.722656 " fill-opacity="1" fill-rule="nonzero"/></g></g></g></g><g clip-path="url(#249d2b2858)"><g clip-path="url(#4dbd04deb2)"><g clip-path="url(#86585788af)"><g clip-path="url(#ee0afba4f7)"><path fill="#f2f2f2" d="M 21.359375 63.269531 L 24.4375 66.742188 L 27.90625 63.675781 L 24.632812 60.210938 Z M 21.359375 63.269531 " fill-opacity="1" fill-rule="nonzero"/></g></g></g></g><g clip-path="url(#a44197c652)"><g clip-path="url(#0be3ef5571)"><g clip-path="url(#c8f00e27b1)"><g clip-path="url(#a9e9661d40)"><path fill="#f2f2f2" d="M 27.585938 70.386719 L 26.921875 72.046875 C 26.914062 72.058594 26.910156 72.078125 26.894531 72.085938 L 30.644531 74.589844 L 31.960938 71.683594 Z M 27.585938 70.386719 " fill-opacity="1" fill-rule="nonzero"/></g></g></g></g><g clip-path="url(#f780e733ca)"><g clip-path="url(#4f1fcf15ec)"><g clip-path="url(#ea3b28b562)"><g clip-path="url(#96c19f9cd6)"><path fill="#f2f2f2" d="M 24.894531 59.972656 L 28.175781 63.441406 L 30.972656 60.972656 L 26.804688 58.1875 Z M 24.894531 59.972656 " fill-opacity="1" fill-rule="nonzero"/></g></g></g></g><g clip-path="url(#ad8cb3e009)"><g clip-path="url(#e2d5f2a02c)"><g clip-path="url(#2bf9bb3c0a)"><g clip-path="url(#5990a6ad65)"><path fill="#f2f2f2" d="M 24.667969 66.996094 L 26.820312 69.429688 L 33.367188 71.375 L 33.71875 70.5625 L 33.230469 68.132812 L 30.503906 66.40625 C 30.492188 66.398438 30.484375 66.390625 30.476562 66.375 L 28.15625 63.921875 Z M 24.667969 66.996094 " fill-opacity="1" fill-rule="nonzero"/></g></g></g></g><g clip-path="url(#e7f85c3e40)"><g clip-path="url(#18ff6792c1)"><g clip-path="url(#a4f827c286)"><g clip-path="url(#80b5c98fe9)"><path fill="#f2f2f2" d="M 59.878906 58.421875 L 59.675781 63.398438 L 63.921875 63.753906 L 64.132812 58.855469 Z M 59.878906 58.421875 " fill-opacity="1" fill-rule="nonzero"/></g></g></g></g><g clip-path="url(#70d4e90786)"><g clip-path="url(#074b8da03a)"><g clip-path="url(#f0ac8412fa)"><g clip-path="url(#488f6799ff)"><path fill="#f2f2f2" d="M 63.511719 73.304688 L 63.683594 69.28125 L 58.089844 68.871094 L 58.050781 70.777344 C 58.054688 70.789062 58.054688 70.789062 58.054688 70.800781 C 58.050781 70.808594 58.058594 70.8125 58.054688 70.820312 L 58.003906 73.070312 Z M 63.511719 73.304688 " fill-opacity="1" fill-rule="nonzero"/></g></g></g></g><g clip-path="url(#6a3c537920)"><g clip-path="url(#ff4ec93792)"><g clip-path="url(#23355d8ac2)"><g clip-path="url(#8ffd2db59b)"><path fill="#f2f2f2" d="M 46.742188 49.742188 L 41.097656 49.453125 L 41.277344 52.632812 L 46.917969 52.96875 Z M 46.742188 49.742188 " fill-opacity="1" fill-rule="nonzero"/></g></g></g></g><g clip-path="url(#87f0b506ad)"><g clip-path="url(#6978571434)"><g clip-path="url(#256538ac62)"><g clip-path="url(#40305b85a6)"><path fill="#f2f2f2" d="M 50.042969 57.046875 L 53.847656 57.441406 L 53.867188 55.855469 L 51.96875 55.613281 C 51.875 55.601562 51.816406 55.523438 51.816406 55.433594 L 51.871094 53.988281 L 51.0625 53.933594 Z M 50.042969 57.046875 " fill-opacity="1" fill-rule="nonzero"/></g></g></g></g><g clip-path="url(#070249e927)"><g clip-path="url(#4baaa93103)"><g clip-path="url(#664cf8e9d1)"><g clip-path="url(#945a0137a3)"><path fill="#f2f2f2" d="M 26.429688 70.046875 L 24.246094 67.582031 L 23.253906 69.617188 C 23.25 69.621094 23.238281 69.636719 23.234375 69.644531 L 26.609375 71.894531 L 27.25 70.28125 Z M 26.429688 70.046875 " fill-opacity="1" fill-rule="nonzero"/></g></g></g></g><g clip-path="url(#dbca733b53)"><g clip-path="url(#711cb7770a)"><g clip-path="url(#7e4362bee1)"><g clip-path="url(#f7d9a1b86c)"><path fill="#f2f2f2" d="M 31.546875 60.929688 L 34.207031 62.707031 C 34.234375 62.726562 34.25 62.746094 34.269531 62.78125 L 35.078125 64.457031 L 40.402344 62.246094 C 40.457031 62.222656 40.519531 62.234375 40.5625 62.261719 C 40.589844 62.28125 40.613281 62.304688 40.632812 62.339844 C 40.675781 62.425781 40.628906 62.527344 40.539062 62.566406 L 35.238281 64.777344 L 37.394531 69.234375 L 41.324219 68.273438 L 39.496094 64.597656 C 39.457031 64.511719 39.488281 64.414062 39.570312 64.367188 C 39.632812 64.335938 39.695312 64.347656 39.742188 64.382812 C 39.769531 64.398438 39.789062 64.421875 39.800781 64.449219 L 41.71875 68.316406 C 41.742188 68.363281 41.742188 68.421875 41.71875 68.46875 C 41.699219 68.515625 41.652344 68.554688 41.605469 68.5625 L 37.539062 69.5625 L 39.265625 73.140625 L 43.269531 74.332031 C 43.300781 73.964844 43.332031 73.589844 43.355469 73.203125 C 43.546875 70.300781 43.40625 67.652344 42.925781 65.328125 C 42.34375 62.453125 41.246094 60.070312 39.664062 58.238281 C 38.253906 56.601562 37.261719 54.863281 36.707031 53.066406 L 32.753906 52.832031 L 35.890625 56.859375 C 35.945312 56.925781 35.9375 57.03125 35.871094 57.097656 Z M 31.546875 60.929688 " fill-opacity="1" fill-rule="nonzero"/></g></g></g></g><g clip-path="url(#7920a76055)"><g clip-path="url(#01466d1c03)"><g clip-path="url(#88d15c77a4)"><g clip-path="url(#d24371a461)"><path fill="#f2f2f2" d="M 40.476562 57.554688 C 42.171875 59.519531 43.347656 62.066406 43.96875 65.128906 C 44.460938 67.550781 44.609375 70.296875 44.40625 73.292969 C 44.382812 73.675781 44.34375 74.125 44.296875 74.636719 L 48.835938 75.988281 L 46.15625 71.652344 L 46.554688 62.648438 L 44.917969 62.511719 C 44.820312 62.507812 44.75 62.417969 44.761719 62.328125 C 44.765625 62.230469 44.851562 62.15625 44.945312 62.167969 L 46.570312 62.308594 L 46.628906 61.058594 L 46.667969 60.996094 L 44.136719 56.546875 C 44.105469 56.484375 44.105469 56.414062 44.140625 56.359375 C 44.179688 56.300781 44.246094 56.277344 44.3125 56.28125 L 49.335938 56.96875 L 50.34375 53.875 L 37.84375 53.128906 C 38.378906 54.65625 39.257812 56.136719 40.476562 57.554688 Z M 40.476562 57.554688 " fill-opacity="1" fill-rule="nonzero"/></g></g></g></g><g clip-path="url(#01a6d00dd0)"><g clip-path="url(#ca60c23495)"><g clip-path="url(#4c801e2d48)"><g clip-path="url(#f8c25e3d4b)"><path fill="#f2f2f2" d="M 50.410156 75.21875 C 50.324219 75.210938 50.25 75.140625 50.25 75.050781 L 50.011719 70.582031 C 50.015625 70.535156 50.027344 70.484375 50.058594 70.453125 C 50.09375 70.414062 50.136719 70.394531 50.1875 70.398438 L 53.683594 70.496094 L 53.710938 65 C 53.710938 64.949219 53.730469 64.90625 53.761719 64.875 C 53.796875 64.835938 53.84375 64.828125 53.894531 64.832031 L 57.824219 65.109375 L 57.867188 63.597656 L 47.257812 62.695312 L 47.105469 66.207031 L 47.808594 66.261719 L 47.914062 65.027344 C 47.925781 64.933594 48.003906 64.863281 48.09375 64.863281 L 51.230469 64.964844 C 51.257812 64.964844 51.292969 64.976562 51.320312 64.996094 C 51.367188 65.027344 51.402344 65.082031 51.398438 65.148438 C 51.394531 65.246094 51.3125 65.320312 51.214844 65.316406 L 48.246094 65.226562 L 48.140625 66.476562 C 48.136719 66.574219 48.046875 66.644531 47.953125 66.632812 L 47.09375 66.5625 L 46.875 71.46875 L 49.820312 76.242188 L 54.597656 76.480469 L 54.539062 75.476562 Z M 50.410156 75.21875 " fill-opacity="1" fill-rule="nonzero"/></g></g></g></g><g clip-path="url(#3bf64ad752)"><g clip-path="url(#5c263f33f9)"><g clip-path="url(#ccd77a3f57)"><g clip-path="url(#6890f08a30)"><path fill="#f2f2f2" d="M 57.710938 70.621094 L 57.75 68.683594 C 57.75 68.671875 57.75 68.65625 57.761719 68.640625 L 57.835938 65.460938 L 54.066406 65.1875 L 54.039062 70.511719 Z M 57.710938 70.621094 " fill-opacity="1" fill-rule="nonzero"/></g></g></g></g><g clip-path="url(#89d884022e)"><g clip-path="url(#bcd5f87476)"><g clip-path="url(#1ecd807dac)"><g clip-path="url(#7d48d6a35f)"><path fill="#f2f2f2" d="M 54.621094 77.214844 L 50.265625 76.960938 L 52.417969 80.441406 L 54.703125 80.585938 Z M 54.621094 77.214844 " fill-opacity="1" fill-rule="nonzero"/></g></g></g></g><g clip-path="url(#889c98bd16)"><g clip-path="url(#0924ee1ab3)"><g clip-path="url(#e366b3e332)"><g clip-path="url(#d33080068a)"><path fill="#f2f2f2" d="M 54.582031 72.871094 L 57.65625 73.058594 L 57.699219 70.972656 L 50.363281 70.765625 L 50.582031 74.886719 L 54.511719 75.125 L 54.390625 73.054688 C 54.386719 73 54.40625 72.953125 54.441406 72.914062 C 54.484375 72.882812 54.535156 72.867188 54.582031 72.871094 Z M 54.582031 72.871094 " fill-opacity="1" fill-rule="nonzero"/></g></g></g></g><g clip-path="url(#1bafa8d244)"><g clip-path="url(#cf252f152a)"><g clip-path="url(#bd00354a4d)"><g clip-path="url(#7e30ab4e46)"><path fill="#f2f2f2" d="M 45.566406 78.644531 L 45.90625 81.539062 L 49.667969 82.1875 L 49.515625 79.269531 Z M 45.566406 78.644531 " fill-opacity="1" fill-rule="nonzero"/></g></g></g></g><g clip-path="url(#4ef990674c)"><g clip-path="url(#1014b30e3b)"><g clip-path="url(#60f3e72fac)"><g clip-path="url(#fb1355c20f)"><path fill="#f2f2f2" d="M 29.851562 54.890625 C 29.859375 54.894531 29.871094 54.894531 29.871094 54.894531 C 29.878906 54.898438 29.890625 54.894531 29.890625 54.894531 C 29.898438 54.898438 29.90625 54.90625 29.910156 54.898438 C 29.910156 54.898438 29.910156 54.898438 29.917969 54.902344 C 29.921875 54.90625 29.929688 54.910156 29.9375 54.917969 C 29.945312 54.921875 29.953125 54.925781 29.953125 54.925781 L 29.957031 54.929688 L 29.964844 54.933594 L 29.972656 54.941406 C 29.980469 54.945312 29.980469 54.945312 29.984375 54.949219 C 29.984375 54.949219 29.984375 54.949219 29.992188 54.953125 C 30 54.957031 30 54.957031 30.003906 54.96875 C 30.003906 54.96875 30.003906 54.96875 30.007812 54.972656 C 30.015625 54.980469 30.011719 54.984375 30.019531 54.992188 C 30.027344 54.996094 30.019531 55.003906 30.023438 55.015625 C 30.023438 55.015625 30.023438 55.015625 30.027344 55.027344 L 30.027344 55.039062 C 30.027344 55.039062 30.027344 55.039062 30.023438 55.042969 C 30.027344 55.054688 30.027344 55.054688 30.019531 55.0625 C 30.015625 55.070312 30.023438 55.074219 30.019531 55.082031 L 30.015625 55.089844 L 30.007812 55.09375 L 29.992188 55.125 L 29.980469 55.136719 L 29.972656 55.152344 L 29.96875 55.15625 L 29.964844 55.164062 C 29.957031 55.171875 29.957031 55.171875 29.953125 55.179688 L 27.054688 57.933594 L 31.230469 60.722656 L 35.527344 56.9375 L 32.304688 52.792969 L 27.988281 52.539062 L 26.484375 54.792969 L 29.851562 54.890625 C 29.847656 54.886719 29.847656 54.886719 29.851562 54.890625 Z M 29.851562 54.890625 " fill-opacity="1" fill-rule="nonzero"/></g></g></g></g><g clip-path="url(#2f127e29be)"><g clip-path="url(#d252dcb385)"><g clip-path="url(#2159723cdf)"><g clip-path="url(#c6914c7a22)"><path fill="#f2f2f2" d="M 35.144531 76.304688 L 31.3125 75.046875 L 34.710938 77.316406 C 34.714844 77.296875 34.71875 77.277344 34.722656 77.253906 Z M 35.144531 76.304688 " fill-opacity="1" fill-rule="nonzero"/></g></g></g></g><g clip-path="url(#9069442d34)"><g clip-path="url(#37d0dfe586)"><g clip-path="url(#9136596e61)"><g clip-path="url(#668073ff9d)"><path fill="#f2f2f2" d="M 31.636719 47.074219 L 28.4375 51.871094 L 31.816406 52.074219 Z M 31.636719 47.074219 " fill-opacity="1" fill-rule="nonzero"/></g></g></g></g><g clip-path="url(#eb94577de6)"><g clip-path="url(#f58c7a7de2)"><g clip-path="url(#008f2dc425)"><g clip-path="url(#577e6bca40)"><path fill="#f2f2f2" d="M 50.570312 53.183594 L 51.652344 49.871094 L 46.925781 46.710938 L 47.273438 52.996094 Z M 50.570312 53.183594 " fill-opacity="1" fill-rule="nonzero"/></g></g></g></g><g clip-path="url(#b42b71ba7f)"><g clip-path="url(#00efbb7da6)"><g clip-path="url(#8e4e90fc78)"><g clip-path="url(#d479358d2a)"><path fill="#f2f2f2" d="M 37.601562 46.871094 C 37.191406 48.527344 37.148438 50.179688 37.476562 51.777344 C 37.519531 51.984375 37.574219 52.203125 37.628906 52.410156 L 40.917969 52.605469 L 40.523438 45.378906 C 40.519531 45.324219 40.542969 45.277344 40.574219 45.242188 C 40.609375 45.203125 40.660156 45.1875 40.710938 45.191406 L 45.199219 45.5625 L 39.953125 42.058594 C 39.949219 42.066406 39.507812 42.578125 39.023438 43.410156 C 38.582031 44.160156 37.976562 45.386719 37.601562 46.871094 Z M 37.601562 46.871094 " fill-opacity="1" fill-rule="nonzero"/></g></g></g></g><g clip-path="url(#16688357f8)"><g clip-path="url(#dcd1eeb9a1)"><g clip-path="url(#2761c4aa06)"><g clip-path="url(#8bb3fe64ed)"><path fill="#f2f2f2" d="M 34.792969 48.578125 C 34.832031 48.582031 34.859375 48.589844 34.886719 48.609375 C 34.933594 48.640625 34.96875 48.695312 34.96875 48.753906 C 34.964844 48.851562 34.890625 48.933594 34.792969 48.929688 L 32.050781 48.890625 L 32.167969 52.046875 L 32.207031 52.105469 L 36.527344 52.363281 C 36.496094 52.230469 36.46875 52.101562 36.445312 51.972656 C 36.085938 50.214844 36.136719 48.398438 36.59375 46.578125 C 37.371094 43.507812 39.015625 41.5625 39.089844 41.480469 L 36.519531 39.765625 L 31.96875 46.582031 L 32.035156 48.539062 Z M 34.792969 48.578125 " fill-opacity="1" fill-rule="nonzero"/></g></g></g></g><g clip-path="url(#7420dab000)"><g clip-path="url(#8a71db5925)"><g clip-path="url(#b2f06ec1c0)"><g clip-path="url(#8cb23bfca5)"><path fill="#f2f2f2" d="M 22.941406 69.449219 L 23.992188 67.300781 L 20.652344 63.53125 L 18.625 66.566406 Z M 22.941406 69.449219 " fill-opacity="1" fill-rule="nonzero"/></g></g></g></g><g clip-path="url(#41fcc1d4a1)"><g clip-path="url(#b8491da14b)"><g clip-path="url(#c0694a7772)"><g clip-path="url(#9dd54f3cf3)"><path fill="#f2f2f2" d="M 24.394531 59.953125 L 23.601562 59.109375 L 21.054688 62.925781 L 21.132812 63.007812 Z M 24.394531 59.953125 " fill-opacity="1" fill-rule="nonzero"/></g></g></g></g><g clip-path="url(#a28365781b)"><g clip-path="url(#9cc821fd8c)"><g clip-path="url(#8546fdeb89)"><g clip-path="url(#7610c58f74)"><path fill="#f2f2f2" d="M 23.835938 58.851562 L 24.652344 59.71875 L 26.503906 57.988281 L 25.023438 57 L 25.015625 56.996094 L 23.792969 58.824219 L 23.800781 58.832031 C 23.820312 58.832031 23.820312 58.84375 23.835938 58.851562 Z M 23.835938 58.851562 " fill-opacity="1" fill-rule="nonzero"/></g></g></g></g><g clip-path="url(#b7bfe1e94b)"><g clip-path="url(#405a9c71e2)"><g clip-path="url(#8fb32e1d44)"><g clip-path="url(#884bdea79f)"><path fill="#aee06b" d="M 26.769531 57.742188 L 29.417969 55.222656 L 26.367188 55.136719 C 26.335938 55.136719 26.304688 55.125 26.273438 55.109375 L 25.214844 56.695312 L 25.222656 56.699219 L 26.773438 57.734375 Z M 26.769531 57.742188 " fill-opacity="1" fill-rule="nonzero"/></g></g></g></g><g clip-path="url(#efd90a1143)"><g clip-path="url(#b0ee54a8aa)"><g clip-path="url(#ed9cf69938)"><g clip-path="url(#aa11a8b77c)"><path fill="#f2f2f2" d="M 57.40625 53.710938 L 52.253906 50.269531 L 51.285156 53.234375 Z M 57.40625 53.710938 " fill-opacity="1" fill-rule="nonzero"/></g></g></g></g><g clip-path="url(#46f08a21bf)"><g clip-path="url(#0115976314)"><g clip-path="url(#4f45ce7929)"><g clip-path="url(#196ea86929)"><path fill="#f2f2f2" d="M 55.988281 86.226562 L 59.324219 81.226562 L 52.644531 80.8125 Z M 55.988281 86.226562 " fill-opacity="1" fill-rule="nonzero"/></g></g></g></g><g clip-path="url(#f1b04273dc)"><g clip-path="url(#21a499cf84)"><g clip-path="url(#3045678a87)"><g clip-path="url(#9b173cf839)"><path fill="#f2f2f2" d="M 49.773438 77.488281 L 50.15625 84.828125 L 54.652344 85.382812 Z M 49.773438 77.488281 " fill-opacity="1" fill-rule="nonzero"/></g></g></g></g><g clip-path="url(#381334ac5b)"><g clip-path="url(#ab75484d05)"><g clip-path="url(#93ed6f0fba)"><g clip-path="url(#4b6c2b18f5)"><path fill="#f2f2f2" d="M 50.179688 85.1875 L 50.300781 87.480469 C 50.304688 87.554688 50.261719 87.617188 50.203125 87.648438 L 53.546875 89.878906 L 55.5625 86.859375 L 54.882812 85.761719 Z M 50.179688 85.1875 " fill-opacity="1" fill-rule="nonzero"/></g></g></g></g><g clip-path="url(#d663ec507e)"><g clip-path="url(#afee1b6f18)"><g clip-path="url(#e744727baf)"><g clip-path="url(#947979abfa)"><path fill="#f2f2f2" d="M 36.925781 73.167969 L 35.628906 76.097656 L 39.839844 77.488281 C 39.929688 77.519531 39.984375 77.617188 39.949219 77.714844 C 39.921875 77.804688 39.824219 77.859375 39.726562 77.824219 L 35.480469 76.421875 L 35.050781 77.402344 C 35.035156 77.441406 35.003906 77.46875 34.964844 77.484375 L 41.84375 82.078125 C 41.855469 82.042969 42.75 79.089844 43.199219 75.042969 Z M 36.925781 73.167969 " fill-opacity="1" fill-rule="nonzero"/></g></g></g></g><g clip-path="url(#ce61ed17bc)"><g clip-path="url(#0ea372da4c)"><g clip-path="url(#d3a922f151)"><g clip-path="url(#e114c98629)"><path fill="#f2f2f2" d="M 45.574219 81.707031 L 45.1875 78.460938 C 45.183594 78.40625 45.199219 78.351562 45.242188 78.316406 C 45.277344 78.28125 45.339844 78.261719 45.390625 78.277344 L 49.492188 78.921875 L 49.386719 76.875 L 44.21875 75.339844 C 44.070312 76.609375 43.847656 78.140625 43.484375 79.832031 C 43.132812 81.476562 42.773438 82.648438 42.765625 82.691406 L 45.945312 84.8125 Z M 45.574219 81.707031 " fill-opacity="1" fill-rule="nonzero"/></g></g></g></g><g clip-path="url(#ddebf4cee2)"><g clip-path="url(#0f3a40e61a)"><g clip-path="url(#c4ea953233)"><g clip-path="url(#71ee4dc417)"><path fill="#f2f2f2" d="M 57.824219 73.414062 L 54.757812 73.226562 L 54.945312 76.503906 L 62.226562 76.875 L 63.433594 75.074219 L 63.5 73.660156 Z M 57.824219 73.414062 " fill-opacity="1" fill-rule="nonzero"/></g></g></g></g><g clip-path="url(#5840080f1b)"><g clip-path="url(#fb4f47b2b2)"><g clip-path="url(#ada19b025b)"><g clip-path="url(#19713f2b0f)"><path fill="#f2f2f2" d="M 55.050781 80.609375 L 59.449219 80.886719 C 59.480469 80.886719 59.511719 80.898438 59.53125 80.914062 L 61.726562 77.628906 L 54.972656 77.234375 Z M 55.050781 80.609375 " fill-opacity="1" fill-rule="nonzero"/></g></g></g></g><g clip-path="url(#05885bfa2d)"><g clip-path="url(#1a15fc3cfb)"><g clip-path="url(#aa3fa1bc86)"><g clip-path="url(#971990c279)"><path fill="#aee06b" d="M 68.371094 62.035156 C 68.386719 62.039062 68.394531 62.042969 68.410156 62.050781 L 71.175781 63.457031 L 71.183594 63.460938 L 71.441406 63.078125 L 65.308594 58.984375 L 64.484375 58.898438 L 64.390625 61.101562 Z M 68.371094 62.035156 " fill-opacity="1" fill-rule="nonzero"/></g></g></g></g><g clip-path="url(#442771b185)"><g clip-path="url(#2e3db0254e)"><g clip-path="url(#78ee3f4577)"><g clip-path="url(#2182a58722)"><path fill="#f2f2f2" d="M 64.679688 58.566406 L 59.972656 55.421875 L 59.886719 58.0625 Z M 64.679688 58.566406 " fill-opacity="1" fill-rule="nonzero"/></g></g></g></g><g clip-path="url(#0119bad311)"><g clip-path="url(#1e0ff6583e)"><g clip-path="url(#72e240d875)"><g clip-path="url(#e638eb3f1c)"><path fill="#f2f2f2" d="M 52.179688 55.28125 L 54.078125 55.523438 C 54.171875 55.535156 54.234375 55.609375 54.234375 55.699219 L 54.210938 57.472656 L 59.546875 58.027344 L 59.640625 55.191406 C 59.640625 55.191406 59.640625 55.191406 59.644531 55.183594 L 58.597656 54.484375 L 52.230469 53.996094 Z M 52.179688 55.28125 " fill-opacity="1" fill-rule="nonzero"/></g></g></g></g><g clip-path="url(#7bff5fc900)"><path fill="currentColor" d="M 45.019531 7.523438 C 45.003906 7.523438 44.988281 7.523438 44.976562 7.523438 C 44.960938 7.523438 44.945312 7.523438 44.929688 7.523438 C 35.230469 7.53125 27.378906 15.402344 27.390625 25.097656 C 27.394531 27.207031 28.445312 32.144531 30.832031 36.367188 C 33.8125 41.648438 43.585938 59.03125 44.980469 60.675781 C 44.980469 60.675781 45.011719 60.75 45.027344 60.730469 C 45.046875 60.75 45.074219 60.675781 45.074219 60.675781 C 46.464844 59.027344 56.121094 41.570312 59.183594 36.335938 C 61.730469 31.988281 62.601562 27.167969 62.597656 25.058594 C 62.585938 15.363281 54.71875 7.511719 45.019531 7.523438 " fill-opacity="1" fill-rule="nonzero"/></g><path class="bus" fill="#e5e5e5" d="M 58.234375 25.136719 C 58.234375 32.617188 52.171875 38.679688 44.691406 38.679688 C 37.214844 38.679688 31.152344 32.617188 31.152344 25.136719 C 31.152344 17.660156 37.214844 11.597656 44.691406 11.597656 C 52.171875 11.597656 58.234375 17.660156 58.234375 25.136719 " fill-opacity="1" fill-rule="nonzero"/><path fill="currentColor" d="M 50.300781 30.433594 L 47.722656 30.433594 C 47.125 30.433594 46.640625 29.949219 46.640625 29.351562 C 46.640625 28.753906 47.125 28.265625 47.722656 28.265625 L 50.300781 28.265625 C 50.898438 28.265625 51.382812 28.75 51.382812 29.347656 C 51.382812 29.949219 50.898438 30.433594 50.300781 30.433594 Z M 41.898438 30.4375 L 39.324219 30.4375 C 38.726562 30.4375 38.242188 29.953125 38.242188 29.355469 C 38.242188 28.753906 38.726562 28.269531 39.324219 28.269531 L 41.894531 28.269531 C 42.496094 28.265625 42.980469 28.753906 42.980469 29.351562 C 42.980469 29.949219 42.496094 30.433594 41.898438 30.4375 Z M 38.644531 19.480469 C 38.640625 18.4375 39.488281 17.589844 40.53125 17.589844 L 49.035156 17.585938 C 50.082031 17.582031 50.929688 18.429688 50.929688 19.472656 L 50.929688 24.546875 C 50.929688 25.589844 50.085938 26.4375 49.039062 26.4375 L 40.535156 26.4375 C 39.492188 26.441406 38.644531 25.59375 38.644531 24.550781 Z M 50.226562 15.867188 L 39.25 15.871094 C 37.90625 15.871094 36.8125 16.964844 36.8125 18.3125 L 36.816406 29.691406 C 36.816406 31.039062 37.910156 32.132812 39.257812 32.132812 L 39.308594 32.132812 L 39.308594 33.351562 C 39.308594 33.996094 39.832031 34.519531 40.480469 34.515625 C 41.125 34.515625 41.644531 33.996094 41.648438 33.347656 L 41.644531 32.132812 L 48.402344 32.125 L 48.402344 33.347656 C 48.402344 33.992188 48.925781 34.515625 49.574219 34.515625 C 50.21875 34.515625 50.738281 33.992188 50.738281 33.34375 L 50.738281 32.070312 C 51.84375 31.839844 52.671875 30.859375 52.671875 29.6875 L 52.664062 18.304688 C 52.664062 16.957031 51.570312 15.867188 50.226562 15.867188 " fill-opacity="1" fill-rule="nonzero"/><g fill="#b2b2b2" fill-opacity="1"><g transform="translate(3.825589, 75.455602)"><g><path d="M 11.890625 -6.140625 C 11.660156 -4.191406 11.066406 -2.628906 10.109375 -1.453125 C 9.160156 -0.285156 7.925781 0.273438 6.40625 0.234375 C 5.101562 0.203125 4.113281 -0.316406 3.4375 -1.328125 L 2.96875 0 L 0.03125 0 L 3.0625 -17.515625 L 6.296875 -17.515625 L 5.046875 -11.21875 C 5.921875 -12.144531 6.925781 -12.59375 8.0625 -12.5625 C 9.257812 -12.550781 10.195312 -12.125 10.875 -11.28125 C 11.550781 -10.445312 11.914062 -9.285156 11.96875 -7.796875 C 11.976562 -7.328125 11.953125 -6.773438 11.890625 -6.140625 Z M 8.703125 -6.375 C 8.773438 -7.019531 8.796875 -7.519531 8.765625 -7.875 C 8.679688 -9.195312 8.132812 -9.875 7.125 -9.90625 C 6.175781 -9.9375 5.390625 -9.503906 4.765625 -8.609375 L 3.875 -3.703125 C 4.164062 -2.878906 4.78125 -2.453125 5.71875 -2.421875 C 7.300781 -2.378906 8.273438 -3.53125 8.640625 -5.875 Z M 8.703125 -6.375 "/></g></g></g><g fill="#b2b2b2" fill-opacity="1"><g transform="translate(16.694326, 75.455602)"><g><path d="M 7.671875 -1.28125 C 6.765625 -0.25 5.632812 0.253906 4.28125 0.234375 C 3.09375 0.210938 2.191406 -0.210938 1.578125 -1.046875 C 0.972656 -1.878906 0.738281 -2.984375 0.875 -4.359375 L 2.21875 -12.34375 L 5.421875 -12.34375 L 4.078125 -4.328125 C 4.046875 -4.078125 4.039062 -3.835938 4.0625 -3.609375 C 4.132812 -2.847656 4.554688 -2.457031 5.328125 -2.4375 C 6.328125 -2.40625 7.148438 -2.789062 7.796875 -3.59375 L 9.34375 -12.34375 L 12.578125 -12.34375 L 10.4375 0 L 7.4375 0 Z M 7.671875 -1.28125 "/></g></g></g><g fill="#b2b2b2" fill-opacity="1"><g transform="translate(29.494613, 75.455602)"><g><path d="M 7.1875 -3.484375 C 7.3125 -4.085938 6.890625 -4.523438 5.921875 -4.796875 L 4.875 -5.0625 C 2.425781 -5.738281 1.234375 -6.929688 1.296875 -8.640625 C 1.335938 -9.804688 1.851562 -10.753906 2.84375 -11.484375 C 3.832031 -12.222656 5.03125 -12.582031 6.4375 -12.5625 C 7.820312 -12.550781 8.941406 -12.179688 9.796875 -11.453125 C 10.660156 -10.734375 11.101562 -9.773438 11.125 -8.578125 L 7.921875 -8.59375 C 7.941406 -9.644531 7.421875 -10.179688 6.359375 -10.203125 C 5.847656 -10.203125 5.410156 -10.070312 5.046875 -9.8125 C 4.679688 -9.5625 4.457031 -9.226562 4.375 -8.8125 C 4.257812 -8.195312 4.71875 -7.765625 5.75 -7.515625 L 6.203125 -7.40625 C 7.253906 -7.15625 8.054688 -6.867188 8.609375 -6.546875 C 9.160156 -6.222656 9.585938 -5.820312 9.890625 -5.34375 C 10.191406 -4.863281 10.332031 -4.289062 10.3125 -3.625 C 10.289062 -2.84375 10.035156 -2.160156 9.546875 -1.578125 C 9.066406 -0.992188 8.40625 -0.539062 7.5625 -0.21875 C 6.726562 0.101562 5.847656 0.253906 4.921875 0.234375 C 3.546875 0.210938 2.398438 -0.179688 1.484375 -0.953125 C 0.578125 -1.722656 0.117188 -2.722656 0.109375 -3.953125 L 3.140625 -3.921875 C 3.171875 -2.742188 3.800781 -2.148438 5.03125 -2.140625 C 5.625 -2.140625 6.113281 -2.257812 6.5 -2.5 C 6.882812 -2.738281 7.113281 -3.066406 7.1875 -3.484375 Z M 7.1875 -3.484375 "/></g></g></g><g fill="currentColor" fill-opacity="1"><g transform="translate(41.263592, 75.455602)"><g><path d="M 5.171875 -12.359375 L 4.90625 -10.953125 C 5.90625 -12.054688 7.109375 -12.59375 8.515625 -12.5625 C 9.273438 -12.550781 9.90625 -12.378906 10.40625 -12.046875 C 10.914062 -11.710938 11.253906 -11.257812 11.421875 -10.6875 C 12.515625 -11.96875 13.796875 -12.59375 15.265625 -12.5625 C 16.390625 -12.539062 17.238281 -12.15625 17.8125 -11.40625 C 18.394531 -10.65625 18.640625 -9.566406 18.546875 -8.140625 L 18.515625 -7.859375 L 17.21875 0 L 13.984375 0 L 15.296875 -7.875 C 15.328125 -8.15625 15.335938 -8.421875 15.328125 -8.671875 C 15.273438 -9.460938 14.816406 -9.875 13.953125 -9.90625 C 13.078125 -9.90625 12.320312 -9.429688 11.6875 -8.484375 L 11.65625 -8.21875 L 10.21875 0 L 7 0 L 8.3125 -7.859375 C 8.34375 -8.140625 8.351562 -8.398438 8.34375 -8.640625 C 8.289062 -9.453125 7.835938 -9.867188 6.984375 -9.890625 C 6.171875 -9.910156 5.441406 -9.523438 4.796875 -8.734375 L 3.25 0 L 0.03125 0 L 2.171875 -12.34375 Z M 5.171875 -12.359375 "/></g></g></g><g fill="currentColor" fill-opacity="1"><g transform="translate(61.00022, 75.455602)"><g><path d="M 7.171875 0 C 7.078125 -0.3125 7.035156 -0.6875 7.046875 -1.125 C 6.117188 -0.1875 5.070312 0.265625 3.90625 0.234375 C 2.820312 0.210938 1.921875 -0.140625 1.203125 -0.828125 C 0.492188 -1.515625 0.164062 -2.363281 0.21875 -3.375 C 0.269531 -4.71875 0.832031 -5.75 1.90625 -6.46875 C 2.988281 -7.1875 4.429688 -7.546875 6.234375 -7.546875 L 7.75 -7.53125 L 7.90625 -8.265625 C 7.945312 -8.515625 7.957031 -8.753906 7.9375 -8.984375 C 7.894531 -9.347656 7.757812 -9.628906 7.53125 -9.828125 C 7.300781 -10.023438 6.992188 -10.128906 6.609375 -10.140625 C 6.109375 -10.148438 5.679688 -10.023438 5.328125 -9.765625 C 4.984375 -9.503906 4.765625 -9.128906 4.671875 -8.640625 L 1.4375 -8.625 C 1.488281 -9.800781 2.03125 -10.753906 3.0625 -11.484375 C 4.09375 -12.222656 5.363281 -12.582031 6.875 -12.5625 C 8.269531 -12.539062 9.363281 -12.125 10.15625 -11.3125 C 10.945312 -10.507812 11.28125 -9.476562 11.15625 -8.21875 L 10.203125 -2.3125 L 10.15625 -1.578125 C 10.132812 -1.046875 10.195312 -0.59375 10.34375 -0.21875 L 10.328125 0 Z M 4.703125 -2.265625 C 5.628906 -2.234375 6.4375 -2.640625 7.125 -3.484375 L 7.53125 -5.609375 L 6.40625 -5.625 C 5.21875 -5.59375 4.363281 -5.234375 3.84375 -4.546875 C 3.65625 -4.285156 3.535156 -3.972656 3.484375 -3.609375 C 3.429688 -3.203125 3.519531 -2.878906 3.75 -2.640625 C 3.976562 -2.398438 4.296875 -2.273438 4.703125 -2.265625 Z M 4.703125 -2.265625 "/></g></g></g><g fill="currentColor" fill-opacity="1"><g transform="translate(73.26432, 75.455602)"><g><path d="M 11.890625 -6.140625 C 11.722656 -4.847656 11.378906 -3.695312 10.859375 -2.6875 C 10.347656 -1.6875 9.707031 -0.941406 8.9375 -0.453125 C 8.175781 0.0351562 7.328125 0.265625 6.390625 0.234375 C 5.191406 0.203125 4.25 -0.238281 3.5625 -1.09375 L 2.421875 4.75 L -0.78125 4.75 L 2.171875 -12.34375 L 5.125 -12.359375 L 4.921875 -11.109375 C 5.804688 -12.109375 6.851562 -12.59375 8.0625 -12.5625 C 9.269531 -12.539062 10.207031 -12.101562 10.875 -11.25 C 11.550781 -10.40625 11.910156 -9.253906 11.953125 -7.796875 C 11.960938 -7.328125 11.941406 -6.773438 11.890625 -6.140625 Z M 8.6875 -6.375 L 8.765625 -7.46875 C 8.773438 -8.207031 8.632812 -8.789062 8.34375 -9.21875 C 8.0625 -9.65625 7.648438 -9.882812 7.109375 -9.90625 C 6.171875 -9.9375 5.398438 -9.539062 4.796875 -8.71875 L 3.859375 -3.625 C 4.140625 -2.851562 4.75 -2.453125 5.6875 -2.421875 C 6.457031 -2.398438 7.097656 -2.703125 7.609375 -3.328125 C 8.128906 -3.953125 8.488281 -4.96875 8.6875 -6.375 Z M 8.6875 -6.375 "/></g></g></g></svg>
