<svg xmlns="http://www.w3.org/2000/svg" xmlns:xlink="http://www.w3.org/1999/xlink" zoomAndPan="magnify" viewBox="0 0 2250 1733.249988" preserveAspectRatio="xMidYMid meet" version="1.0"><defs><clipPath id="162ed20835"><path d="M 0.488281 0 L 2249.511719 0 L 2249.511719 1732.40625 L 0.488281 1732.40625 Z M 0.488281 0 " clip-rule="nonzero"/></clipPath><clipPath id="4fe7a35ebe"><path d="M 1673 1519 L 2018 1519 L 2018 1732.40625 L 1673 1732.40625 Z M 1673 1519 " clip-rule="nonzero"/></clipPath><clipPath id="b7dc6e4502"><path d="M 2039 304 L 2249.511719 304 L 2249.511719 518 L 2039 518 Z M 2039 304 " clip-rule="nonzero"/></clipPath><clipPath id="bd1bfc8ceb"><path d="M 2110 510 L 2249.511719 510 L 2249.511719 740 L 2110 740 Z M 2110 510 " clip-rule="nonzero"/></clipPath><clipPath id="15fbf6c01d"><path d="M 1886 44 L 2249.511719 44 L 2249.511719 376 L 1886 376 Z M 1886 44 " clip-rule="nonzero"/></clipPath><clipPath id="ac99ef9a96"><path d="M 163 0 L 1556 0 L 1556 1732.40625 L 163 1732.40625 Z M 163 0 " clip-rule="nonzero"/></clipPath><clipPath id="dc1b16ba88"><path d="M 0.488281 891 L 2249.511719 891 L 2249.511719 1655 L 0.488281 1655 Z M 0.488281 891 " clip-rule="nonzero"/></clipPath><clipPath id="2f47e0c1f4"><path d="M 0.488281 0 L 2249.511719 0 L 2249.511719 1537 L 0.488281 1537 Z M 0.488281 0 " clip-rule="nonzero"/></clipPath><clipPath id="d6530ba113"><path d="M 0.488281 708 L 467 708 L 467 1095 L 0.488281 1095 Z M 0.488281 708 " clip-rule="nonzero"/></clipPath><clipPath id="ac6cd6e423"><path d="M 817 1674 L 1037 1674 L 1037 1732.40625 L 817 1732.40625 Z M 817 1674 " clip-rule="nonzero"/></clipPath><clipPath id="69946df633"><path d="M 0.488281 472 L 158 472 L 158 783 L 0.488281 783 Z M 0.488281 472 " clip-rule="nonzero"/></clipPath><clipPath id="0089c6d789"><path d="M 0.488281 0 L 376 0 L 376 681 L 0.488281 681 Z M 0.488281 0 " clip-rule="nonzero"/></clipPath><clipPath id="de3a15f749"><path d="M 0.488281 1535 L 279 1535 L 279 1732 L 0.488281 1732 Z M 0.488281 1535 " clip-rule="nonzero"/></clipPath><clipPath id="1fdd1e9717"><path d="M 0.488281 1250 L 61 1250 L 61 1499 L 0.488281 1499 Z M 0.488281 1250 " clip-rule="nonzero"/></clipPath><clipPath id="4afa0ce9dd"><path d="M 0.488281 1113 L 97 1113 L 97 1247 L 0.488281 1247 Z M 0.488281 1113 " clip-rule="nonzero"/></clipPath><clipPath id="63ef8648ba"><path d="M 0.488281 903 L 144 903 L 144 1095 L 0.488281 1095 Z M 0.488281 903 " clip-rule="nonzero"/></clipPath><clipPath id="2fbd4a29c3"><path d="M 1939 1173 L 2249.511719 1173 L 2249.511719 1496 L 1939 1496 Z M 1939 1173 " clip-rule="nonzero"/></clipPath><clipPath id="f88e3a478e"><path d="M 1959 1508 L 2249.511719 1508 L 2249.511719 1732 L 1959 1732 Z M 1959 1508 " clip-rule="nonzero"/></clipPath><clipPath id="ab437bdc39"><path d="M 1011 1377 L 1496 1377 L 1496 1732.40625 L 1011 1732.40625 Z M 1011 1377 " clip-rule="nonzero"/></clipPath><clipPath id="e91d3a7123"><path d="M 1401 1275 L 1760 1275 L 1760 1732.40625 L 1401 1732.40625 Z M 1401 1275 " clip-rule="nonzero"/></clipPath><clipPath id="171e0cac5f"><path d="M 1807 710 L 2249.511719 710 L 2249.511719 1093 L 1807 1093 Z M 1807 710 " clip-rule="nonzero"/></clipPath><clipPath id="7a9c4a6178"><path d="M 1936 940 L 2249.511719 940 L 2249.511719 1273 L 1936 1273 Z M 1936 940 " clip-rule="nonzero"/></clipPath><clipPath id="b9b7d40a72"><path d="M 1815 0 L 2249.511719 0 L 2249.511719 123 L 1815 123 Z M 1815 0 " clip-rule="nonzero"/></clipPath></defs><g clip-path="url(#162ed20835)"><path fill="#ffffff" d="M 0.527344 -0.09375 L 2249.023438 -0.09375 L 2249.023438 1732.40625 L 0.527344 1732.40625 Z M 0.527344 -0.09375 " fill-opacity="1" fill-rule="nonzero"/></g><g clip-path="url(#4fe7a35ebe)"><path fill="#aee06b" d="M 2017.429688 1731.957031 L 1859.136719 1519.273438 L 1673.410156 1602.007812 L 1779.089844 1726.113281 C 1780.4375 1727.910156 1781.335938 1730.160156 1781.335938 1732.40625 L 2017.429688 1732.40625 Z M 2017.429688 1731.957031 " fill-opacity="1" fill-rule="nonzero"/></g><g clip-path="url(#b7dc6e4502)"><path fill="#aee06b" d="M 2097.476562 488.675781 L 2249.023438 517.453125 L 2249.023438 304.320312 L 2039.015625 392 Z M 2097.476562 488.675781 " fill-opacity="1" fill-rule="nonzero"/></g><path fill="#aee06b" d="M 690.363281 1347.957031 L 664.28125 1164.949219 L 577.039062 1113.6875 L 403.457031 1113.6875 L 350.839844 1311.535156 L 525.324219 1351.554688 Z M 690.363281 1347.957031 " fill-opacity="1" fill-rule="nonzero"/><g clip-path="url(#bd1bfc8ceb)"><path fill="#aee06b" d="M 2249.023438 536.789062 C 2248.574219 536.789062 2248.125 536.789062 2247.675781 536.789062 L 2110.515625 510.707031 L 2249.023438 739.128906 Z M 2249.023438 536.789062 " fill-opacity="1" fill-rule="nonzero"/></g><path fill="#aee06b" d="M 367.03125 129.40625 L 481.253906 281.835938 L 741.179688 126.257812 L 650.792969 5.75 C 649.441406 4.402344 648.992188 2.605469 648.992188 0.804688 L 597.726562 0.804688 Z M 367.03125 129.40625 " fill-opacity="1" fill-rule="nonzero"/><g clip-path="url(#15fbf6c01d)"><path fill="#aee06b" d="M 1886.117188 138.847656 L 2029.570312 375.8125 L 2245.875 285.433594 C 2247.226562 284.984375 2248.125 284.535156 2249.472656 284.535156 L 2249.472656 44.421875 L 2087.132812 63.757812 Z M 1886.117188 138.847656 " fill-opacity="1" fill-rule="nonzero"/></g><g clip-path="url(#ac99ef9a96)"><path fill="#82c4ff" d="M 206.488281 302.519531 C 239.765625 397.398438 291.480469 479.683594 360.285156 548.027344 C 445.277344 632.5625 556.804688 694.613281 690.816406 731.9375 C 815.382812 766.558594 935 840.300781 1046.976562 951.363281 C 1137.367188 1041.292969 1222.359375 1155.054688 1300.15625 1290.402344 C 1433.269531 1521.96875 1495.777344 1730.15625 1496.675781 1732.40625 L 1555.585938 1732.40625 C 1554.6875 1730.15625 1536.25 1667.207031 1502.523438 1583.121094 C 1446.761719 1442.832031 1388.75 1331.769531 1349.175781 1263.421875 C 1269.128906 1123.582031 1180.539062 1005.324219 1087 911.796875 C 968.28125 793.539062 840.113281 714.847656 706.105469 677.527344 C 581.988281 642.90625 479.457031 586.25 401.207031 508.910156 C 338.699219 447.308594 291.480469 372.214844 260.902344 285.882812 C 233.019531 208.542969 224.027344 135.699219 221.328125 88.488281 C 218.179688 36.777344 222.675781 0.804688 222.675781 0.355469 L 165.566406 0.355469 C 165.117188 6.652344 149.375 141.996094 206.488281 302.519531 Z M 206.488281 302.519531 " fill-opacity="1" fill-rule="nonzero"/></g><g clip-path="url(#dc1b16ba88)"><path fill="#ffffff" d="M 2249.023438 891.5625 L 2249.023438 940.574219 L 1686 1271.964844 L 1684.203125 1272.863281 L 451.574219 1654.617188 L 0.527344 1535.910156 L 0.527344 1496.789062 L 450.675781 1615.496094 L 1670.710938 1237.34375 Z M 2249.023438 891.5625 " fill-opacity="1" fill-rule="nonzero"/></g><g clip-path="url(#2f47e0c1f4)"><path fill="#ffcd00" d="M 0.527344 825.914062 L 1035.734375 218.886719 L 1083.402344 390.203125 L 1083.402344 649.648438 L 1377.957031 1137.519531 L 2249.023438 1536.808594 L 2249.023438 1495.890625 L 1404.039062 1108.292969 L 1121.175781 639.308594 L 1121.175781 384.804688 L 1069.011719 199.550781 L 1421.578125 0.804688 L 1345.578125 0.804688 L 1058.667969 162.230469 L 1013.699219 0.804688 L 975.023438 0.804688 L 1025.390625 181.113281 L 0.527344 782.746094 Z M 0.527344 825.914062 " fill-opacity="1" fill-rule="nonzero"/></g><path fill="#f2f2f2" d="M 1315.898438 285.433594 C 1315.449219 285.433594 1315.449219 285.433594 1315.898438 285.433594 L 1121.175781 388.402344 L 1121.175781 639.308594 L 1151.308594 688.769531 L 1523.210938 482.828125 L 1375.707031 253.507812 Z M 1315.898438 285.433594 " fill-opacity="1" fill-rule="nonzero"/><path fill="#f2f2f2" d="M 1083.402344 624.46875 L 1083.402344 407.289062 L 863.5 514.304688 Z M 1083.402344 624.46875 " fill-opacity="1" fill-rule="nonzero"/><path fill="#f2f2f2" d="M 912.066406 1311.535156 L 684.96875 1177.539062 L 710.152344 1352.902344 L 806.835938 1449.578125 C 808.1875 1450.925781 809.085938 1452.722656 809.535156 1454.523438 L 818.53125 1502.1875 L 1091.046875 1417.652344 Z M 912.066406 1311.535156 " fill-opacity="1" fill-rule="nonzero"/><path fill="#f2f2f2" d="M 1391.898438 244.964844 L 1539.398438 474.285156 L 1717.929688 374.914062 L 1578.972656 146.042969 Z M 1391.898438 244.964844 " fill-opacity="1" fill-rule="nonzero"/><path fill="#f2f2f2" d="M 993.914062 1486.449219 L 765.015625 1557.492188 L 791.996094 1719.816406 L 1022.691406 1655.515625 Z M 993.914062 1486.449219 " fill-opacity="1" fill-rule="nonzero"/><path fill="#f2f2f2" d="M 2016.980469 391.550781 L 1944.128906 271.046875 L 1736.367188 386.605469 C 1736.367188 386.605469 1735.917969 386.605469 1735.917969 387.054688 C 1735.46875 387.054688 1735.019531 387.503906 1735.019531 387.503906 L 1677.007812 419.878906 L 1817.3125 641.554688 L 2078.589844 493.171875 L 2017.878906 392.898438 C 2017.429688 392.449219 2016.980469 392.449219 2016.980469 391.550781 Z M 2016.980469 391.550781 " fill-opacity="1" fill-rule="nonzero"/><path fill="#f2f2f2" d="M 24.359375 1503.085938 L 264.5 1566.484375 L 327.90625 1325.921875 L 79.222656 1268.816406 Z M 24.359375 1503.085938 " fill-opacity="1" fill-rule="nonzero"/><path fill="#f2f2f2" d="M 513.183594 1635.28125 L 532.96875 1729.257812 C 532.96875 1730.160156 533.417969 1731.058594 532.96875 1731.957031 L 774.460938 1731.957031 L 746.578125 1562.886719 Z M 513.183594 1635.28125 " fill-opacity="1" fill-rule="nonzero"/><path fill="#f2f2f2" d="M 83.71875 1250.382812 L 332.855469 1307.488281 L 384.121094 1113.6875 L 115.648438 1113.6875 Z M 83.71875 1250.382812 " fill-opacity="1" fill-rule="nonzero"/><path fill="#f2f2f2" d="M 282.488281 1570.980469 L 450.675781 1615.496094 L 800.09375 1507.132812 L 791.546875 1460.367188 L 697.558594 1366.390625 L 524.875 1370.4375 C 523.976562 1370.4375 523.527344 1370.4375 522.628906 1369.988281 L 346.34375 1329.519531 Z M 282.488281 1570.980469 " fill-opacity="1" fill-rule="nonzero"/><path fill="#f2f2f2" d="M 1595.609375 137.5 L 1734.566406 365.921875 L 1934.234375 255.308594 L 1797.976562 30.03125 Z M 1595.609375 137.5 " fill-opacity="1" fill-rule="nonzero"/><path fill="#f2f2f2" d="M 2200.007812 694.164062 L 2088.03125 509.359375 L 1826.757812 657.742188 L 1881.621094 744.078125 C 1882.070312 744.527344 1882.070312 744.527344 1882.519531 744.976562 C 1882.519531 745.425781 1882.96875 745.425781 1882.96875 745.875 L 1947.726562 847.945312 Z M 2200.007812 694.164062 " fill-opacity="1" fill-rule="nonzero"/><path fill="#f2f2f2" d="M 752.421875 141.546875 L 492.496094 297.125 L 595.027344 433.816406 L 856.304688 280.488281 Z M 752.421875 141.546875 " fill-opacity="1" fill-rule="nonzero"/><path fill="#f2f2f2" d="M 1116.679688 369.519531 L 1297.910156 273.742188 L 1251.589844 202.25 L 1159.851562 248.113281 C 1155.355469 250.359375 1150.40625 248.5625 1147.710938 244.515625 L 1107.238281 178.417969 L 1069.460938 200 Z M 1116.679688 369.519531 " fill-opacity="1" fill-rule="nonzero"/><path fill="#f2f2f2" d="M 451.574219 1654.617188 L 281.136719 1609.652344 L 297.328125 1730.15625 C 297.328125 1730.609375 297.328125 1731.507812 297.328125 1731.957031 L 514.53125 1731.957031 L 495.195312 1640.679688 Z M 451.574219 1654.617188 " fill-opacity="1" fill-rule="nonzero"/><path fill="#f2f2f2" d="M 408.402344 1094.804688 L 579.738281 1094.804688 C 581.539062 1094.804688 582.886719 1095.253906 584.6875 1096.152344 L 670.578125 1146.960938 L 841.914062 889.3125 C 843.710938 886.613281 846.859375 885.265625 849.558594 885.265625 C 851.359375 885.265625 853.15625 885.714844 854.957031 886.617188 C 859.453125 889.3125 860.351562 895.160156 857.652344 899.65625 L 687.21875 1156.40625 L 915.664062 1291.300781 L 1062.265625 1131.226562 L 871.59375 1021.511719 C 867.097656 1018.8125 865.75 1013.417969 867.996094 1008.921875 C 869.796875 1005.773438 872.941406 1004.421875 876.089844 1004.421875 C 877.890625 1004.421875 879.238281 1004.875 880.589844 1005.773438 L 1081.15625 1121.332031 C 1083.402344 1122.679688 1085.203125 1125.378906 1085.652344 1128.078125 C 1086.101562 1130.773438 1085.203125 1133.921875 1083.402344 1135.722656 L 931.855469 1301.640625 L 1115.332031 1410.007812 L 1328.9375 1343.910156 C 1319.496094 1326.371094 1309.601562 1308.835938 1299.257812 1290.851562 C 1221.460938 1155.507812 1136.46875 1041.292969 1046.078125 951.816406 C 934.550781 840.75 814.933594 767.007812 689.914062 732.386719 C 578.390625 701.359375 482.605469 653.246094 404.355469 589.398438 L 221.328125 696.863281 L 480.804688 783.195312 C 485.300781 784.546875 488 789.492188 487.101562 794.4375 Z M 408.402344 1094.804688 " fill-opacity="1" fill-rule="nonzero"/><path fill="#f2f2f2" d="M 705.65625 677.527344 C 839.664062 714.847656 967.828125 793.539062 1086.550781 911.796875 C 1180.539062 1005.324219 1268.679688 1123.582031 1348.726562 1263.421875 C 1359.070312 1281.40625 1370.761719 1302.542969 1383.800781 1326.824219 L 1626.191406 1251.730469 L 1377.957031 1137.96875 L 1127.921875 723.84375 L 1051.023438 766.558594 C 1046.527344 769.257812 1040.679688 767.457031 1038.433594 762.960938 C 1035.734375 758.464844 1037.53125 752.621094 1042.03125 750.371094 L 1118.480469 708.105469 L 1083.851562 650.550781 L 1083.851562 646.503906 L 838.765625 523.296875 C 835.617188 521.5 833.371094 518.351562 833.371094 514.753906 C 833.371094 511.15625 835.617188 508.011719 838.765625 506.210938 L 1082.953125 387.054688 L 1035.734375 218.886719 L 456.972656 558.371094 C 526.226562 610.53125 609.417969 650.550781 705.65625 677.527344 Z M 705.65625 677.527344 " fill-opacity="1" fill-rule="nonzero"/><path fill="#f2f2f2" d="M 1673.410156 1170.34375 C 1669.363281 1172.59375 1663.964844 1171.691406 1661.265625 1167.648438 L 1517.8125 975.195312 C 1516.464844 972.949219 1515.5625 970.25 1516.015625 968.003906 C 1516.464844 965.304688 1517.8125 963.054688 1520.0625 961.707031 L 1678.804688 861.886719 L 1516.464844 615.476562 C 1515.113281 613.226562 1514.664062 610.53125 1515.113281 608.28125 C 1515.5625 605.585938 1517.363281 603.785156 1519.613281 602.4375 L 1703.089844 497.667969 L 1659.917969 428.871094 L 1160.75 704.957031 L 1258.335938 866.382812 L 1291.164062 847.945312 L 1259.234375 789.492188 C 1256.988281 784.996094 1258.335938 779.597656 1262.382812 776.902344 L 1404.9375 687.871094 C 1406.285156 686.972656 1408.085938 686.519531 1409.882812 686.519531 C 1413.03125 686.519531 1416.179688 687.871094 1417.980469 691.019531 C 1420.675781 695.515625 1419.328125 701.359375 1414.832031 704.058594 L 1279.921875 788.589844 L 1312.300781 847.496094 C 1315 851.992188 1313.199219 857.835938 1308.703125 860.085938 L 1268.230469 882.570312 L 1404.488281 1108.292969 L 1677.457031 1233.746094 L 1897.359375 1101.996094 L 1864.980469 1058.832031 Z M 1673.410156 1170.34375 " fill-opacity="1" fill-rule="nonzero"/><path fill="#f2f2f2" d="M 1861.832031 747.222656 L 1806.070312 659.542969 C 1805.621094 659.09375 1805.171875 658.195312 1805.171875 657.292969 L 1713.882812 512.957031 L 1538.050781 613.226562 L 1694.996094 851.992188 Z M 1861.832031 747.222656 " fill-opacity="1" fill-rule="nonzero"/><path fill="#f2f2f2" d="M 1920.292969 1133.921875 L 1718.828125 1252.628906 L 1918.046875 1343.910156 L 2024.175781 1282.308594 Z M 1920.292969 1133.921875 " fill-opacity="1" fill-rule="nonzero"/><path fill="#f2f2f2" d="M 1789.429688 941.023438 L 1931.984375 857.839844 L 1871.726562 763.410156 L 1538.949219 972.949219 L 1671.160156 1150.558594 L 1853.289062 1043.992188 L 1786.285156 954.960938 C 1784.484375 952.714844 1784.035156 950.015625 1784.484375 947.316406 C 1785.382812 944.621094 1787.183594 942.371094 1789.429688 941.023438 Z M 1789.429688 941.023438 " fill-opacity="1" fill-rule="nonzero"/><path fill="#f2f2f2" d="M 1559.636719 1468.011719 L 1660.816406 1587.167969 L 1847.441406 1503.984375 L 1753.90625 1378.082031 Z M 1559.636719 1468.011719 " fill-opacity="1" fill-rule="nonzero"/><g clip-path="url(#d6530ba113)"><path fill="#f2f2f2" d="M 153.421875 875.375 C 153.875 875.375 154.324219 874.925781 154.324219 874.925781 C 154.773438 874.925781 155.222656 874.476562 155.222656 874.476562 C 155.671875 874.476562 156.121094 874.476562 156.121094 874.023438 C 156.121094 874.023438 156.121094 874.023438 156.570312 874.023438 C 157.019531 874.023438 157.472656 874.023438 157.921875 874.023438 C 158.371094 874.023438 158.820312 874.023438 158.820312 874.023438 L 160.167969 874.023438 C 160.617188 874.023438 160.617188 874.023438 161.070312 874.023438 C 161.070312 874.023438 161.070312 874.023438 161.519531 874.023438 C 161.96875 874.023438 161.96875 874.023438 162.417969 874.476562 C 162.417969 874.476562 162.417969 874.476562 162.867188 874.476562 C 163.316406 874.476562 163.316406 874.925781 163.765625 874.925781 C 164.214844 874.925781 164.214844 875.375 164.667969 875.824219 C 164.667969 875.824219 164.667969 875.824219 165.117188 876.273438 L 165.566406 876.722656 C 165.566406 876.722656 165.566406 876.722656 165.566406 877.171875 C 166.015625 877.621094 166.015625 877.621094 166.015625 878.070312 C 166.015625 878.523438 166.464844 878.523438 166.464844 878.972656 L 166.464844 884.367188 C 166.464844 884.816406 166.464844 884.816406 166.464844 885.265625 L 119.246094 1094.804688 L 388.167969 1094.804688 L 466.863281 797.585938 L 200.191406 708.554688 L 0.527344 825.914062 L 0.527344 971.597656 L 153.421875 875.375 C 152.972656 875.375 152.972656 875.375 153.421875 875.375 Z M 153.421875 875.375 " fill-opacity="1" fill-rule="nonzero"/></g><g clip-path="url(#ac6cd6e423)"><path fill="#f2f2f2" d="M 1025.839844 1674.402344 L 817.628906 1732.40625 L 1036.632812 1732.40625 C 1036.183594 1731.507812 1035.734375 1730.609375 1035.285156 1729.257812 Z M 1025.839844 1674.402344 " fill-opacity="1" fill-rule="nonzero"/></g><g clip-path="url(#69946df633)"><path fill="#f2f2f2" d="M 0.527344 472.9375 L 0.527344 782.746094 L 157.019531 691.019531 Z M 0.527344 472.9375 " fill-opacity="1" fill-rule="nonzero"/></g><path fill="#f2f2f2" d="M 1025.390625 181.113281 L 975.023438 0.804688 L 670.578125 0.804688 L 872.941406 271.046875 Z M 1025.390625 181.113281 " fill-opacity="1" fill-rule="nonzero"/><path fill="#f2f2f2" d="M 260.003906 285.882812 C 291.03125 372.214844 338.25 447.308594 400.308594 508.910156 C 408.402344 517.003906 417.398438 525.097656 425.941406 532.742188 L 578.390625 443.261719 L 345.894531 132.101562 C 344.097656 129.855469 343.648438 127.15625 344.097656 124.460938 C 344.546875 121.761719 346.34375 119.511719 348.59375 118.164062 L 559.503906 0.804688 L 221.777344 0.804688 C 221.777344 1.253906 217.28125 37.226562 220.429688 88.9375 C 223.128906 135.699219 232.570312 208.542969 260.003906 285.882812 Z M 260.003906 285.882812 " fill-opacity="1" fill-rule="nonzero"/><g clip-path="url(#0089c6d789)"><path fill="#f2f2f2" d="M 185.800781 445.957031 C 187.601562 445.058594 188.949219 444.609375 190.75 444.609375 C 193.898438 444.609375 197.042969 445.957031 198.84375 448.65625 C 201.542969 453.152344 200.640625 459 196.144531 461.695312 L 72.925781 541.734375 L 171.859375 679.328125 L 175.457031 680.675781 L 375.574219 563.316406 C 370.179688 558.371094 365.230469 553.425781 360.285156 548.480469 C 291.929688 480.582031 240.214844 397.847656 206.488281 302.96875 C 149.824219 142.445312 165.117188 6.652344 166.015625 0.804688 L 0.527344 0.804688 L 0.527344 441.011719 L 61.683594 526.445312 Z M 185.800781 445.957031 " fill-opacity="1" fill-rule="nonzero"/></g><g clip-path="url(#de3a15f749)"><path fill="#f2f2f2" d="M 278.441406 1731.957031 L 261.351562 1604.707031 L 0.527344 1535.910156 L 0.527344 1731.957031 Z M 278.441406 1731.957031 " fill-opacity="1" fill-rule="nonzero"/></g><g clip-path="url(#1fdd1e9717)"><path fill="#f2f2f2" d="M 60.785156 1264.320312 L 0.527344 1250.382812 L 0.527344 1496.789062 L 6.371094 1498.140625 Z M 60.785156 1264.320312 " fill-opacity="1" fill-rule="nonzero"/></g><g clip-path="url(#4afa0ce9dd)"><path fill="#f2f2f2" d="M 3.222656 1231.945312 L 65.28125 1246.335938 L 96.3125 1113.6875 L 0.527344 1113.6875 L 0.527344 1231.945312 L 0.976562 1231.945312 C 1.875 1231.496094 2.324219 1231.945312 3.222656 1231.945312 Z M 3.222656 1231.945312 " fill-opacity="1" fill-rule="nonzero"/></g><g clip-path="url(#63ef8648ba)"><path fill="#aee06b" d="M 100.808594 1094.804688 L 143.980469 903.253906 L 5.472656 990.484375 C 4.125 991.382812 2.324219 991.832031 0.527344 991.832031 L 0.527344 1094.351562 L 100.808594 1094.351562 Z M 100.808594 1094.804688 " fill-opacity="1" fill-rule="nonzero"/></g><path fill="#f2f2f2" d="M 1345.578125 0.804688 L 1013.699219 0.804688 L 1058.667969 162.230469 Z M 1345.578125 0.804688 " fill-opacity="1" fill-rule="nonzero"/><g clip-path="url(#2fbd4a29c3)"><path fill="#f2f2f2" d="M 2249.023438 1495.890625 L 2249.023438 1173.042969 L 1939.179688 1353.800781 Z M 2249.023438 1495.890625 " fill-opacity="1" fill-rule="nonzero"/></g><path fill="#f2f2f2" d="M 1712.53125 1290.851562 L 1947.726562 1607.402344 L 2164.480469 1498.140625 Z M 1712.53125 1290.851562 " fill-opacity="1" fill-rule="nonzero"/><g clip-path="url(#f88e3a478e)"><path fill="#f2f2f2" d="M 1959.417969 1622.691406 L 2033.167969 1721.613281 C 2035.417969 1724.761719 2035.417969 1728.808594 2033.617188 1731.957031 L 2249.023438 1731.957031 L 2249.023438 1536.808594 L 2186.066406 1508.03125 Z M 1959.417969 1622.691406 " fill-opacity="1" fill-rule="nonzero"/></g><g clip-path="url(#ab437bdc39)"><path fill="#f2f2f2" d="M 1011.902344 1481.050781 L 1041.132812 1650.570312 L 1270.027344 1587.167969 C 1274.976562 1585.820312 1280.371094 1588.519531 1281.71875 1593.914062 C 1283.070312 1598.859375 1280.371094 1604.257812 1274.976562 1605.605469 L 1044.277344 1669.457031 L 1054.171875 1726.113281 C 1054.621094 1728.359375 1054.171875 1730.609375 1052.824219 1732.40625 L 1495.777344 1732.40625 C 1495.328125 1730.609375 1447.210938 1571.882812 1346.925781 1377.632812 Z M 1011.902344 1481.050781 " fill-opacity="1" fill-rule="nonzero"/></g><g clip-path="url(#e91d3a7123)"><path fill="#f2f2f2" d="M 1650.925781 1604.707031 L 1537.148438 1471.160156 C 1535.351562 1468.910156 1534.453125 1465.765625 1535.351562 1463.066406 C 1535.800781 1460.367188 1538.050781 1457.671875 1540.746094 1456.769531 L 1742.664062 1363.246094 L 1677.007812 1275.113281 L 1401.339844 1360.546875 C 1432.371094 1421.699219 1467.894531 1496.789062 1502.074219 1583.121094 C 1535.351562 1667.207031 1554.238281 1730.160156 1555.136719 1732.40625 L 1759.75 1732.40625 Z M 1650.925781 1604.707031 " fill-opacity="1" fill-rule="nonzero"/></g><g clip-path="url(#171e0cac5f)"><path fill="#f2f2f2" d="M 1949.972656 868.628906 L 1807.867188 951.816406 L 1913.546875 1092.554688 L 2249.023438 892.011719 L 2249.023438 775.550781 L 2209.902344 710.351562 Z M 1949.972656 868.628906 " fill-opacity="1" fill-rule="nonzero"/></g><g clip-path="url(#7a9c4a6178)"><path fill="#f2f2f2" d="M 2040.363281 1272.863281 L 2244.527344 1154.15625 C 2245.875 1153.257812 2247.675781 1152.808594 2249.023438 1152.808594 L 2249.023438 940.574219 L 1936.484375 1124.480469 Z M 2040.363281 1272.863281 " fill-opacity="1" fill-rule="nonzero"/></g><g clip-path="url(#b9b7d40a72)"><path fill="#aee06b" d="M 2081.285156 45.769531 C 2082.1875 45.320312 2082.636719 45.320312 2083.535156 45.320312 L 2248.574219 25.535156 L 2249.023438 25.535156 L 2249.023438 0.804688 L 1854.1875 0.804688 L 1815.0625 21.488281 L 1876.222656 122.660156 Z M 2081.285156 45.769531 " fill-opacity="1" fill-rule="nonzero"/></g><path fill="#f2f2f2" d="M 1813.714844 0.804688 L 1510.617188 0.804688 L 1585.269531 121.3125 Z M 1813.714844 0.804688 " fill-opacity="1" fill-rule="nonzero"/><path fill="#f2f2f2" d="M 1159.402344 226.980469 L 1251.140625 181.113281 C 1255.636719 178.867188 1260.585938 180.214844 1263.28125 184.261719 L 1315 264.300781 L 1569.078125 129.855469 L 1489.03125 0.355469 C 1489.03125 0.355469 1489.03125 0.355469 1489.03125 -0.09375 L 1421.578125 -0.09375 L 1123.425781 168.074219 Z M 1159.402344 226.980469 " fill-opacity="1" fill-rule="nonzero"/></svg>
